<ttFont>
<head>
    <!-- Most of this table will be recalculated by the compiler -->
    <tableVersion value="1.0"/>
    <fontRevision value="2.2"/>
    <checkSumAdjustment value="0xa45905d1"/>
    <magicNumber value="0x5f0f3cf5"/>
    <flags value="00000000 00000011"/>
    <unitsPerEm value="1000"/>
    <created value="Fri Jul 21 01:46:31 2017"/>
    <modified value="Fri Jul 21 01:46:31 2017"/>
    <xMin value="-529"/>
    <yMin value="-440"/>
    <xMax value="2631"/>
    <yMax value="1066"/>
    <macStyle value="00000000 00000000"/>
    <lowestRecPPEM value="3"/>
    <fontDirectionHint value="2"/>
    <indexToLocFormat value="0"/>
    <glyphDataFormat value="0"/>
  </head>
          <CharString index="0">
            rmoveto
            -138 -74 254 callgsubr
            216 -271 vlineto
            -137 -78 -98 -125 vhcurveto
            return
          </CharString>
          <CharString index="1">
            rmoveto
            -107 -63 61 -9 callsubr
            60 63 108 105 61 -63 -108 -103 -56 -67 -108 hvcurveto
            return
          </CharString>
          <CharString index="2">
            81 -22 -65 45 -86 hhcurveto
            -142 -56 -97 -143 -163 103 -103 161 16 hvcurveto
            -102 callgsubr
            return
          </CharString>
          <CharString index="3">
            -89 callgsubr
            -105 -81 -61 -115 11 vhcurveto
            -58 vlineto
            155 -10 106 86 137 vvcurveto
            132 -86 90 -130 -89 -58 -38 -52 -32 vhcurveto
            227 504 60 return
          </CharString>
          <CharString index="4">
            rmoveto
            80 49 -53 -77 -86 -61 -43 -63 -70 -66 38 91 84 61 46 70 hvcurveto
            return
          </CharString>
          <CharString index="5">
            rmoveto
            -98 -21 -59 -88 261 callsubr
            vhcurveto
            62 hlineto
            return
          </CharString>
          <CharString index="6">
            -85 callgsubr
            108 73 -68 -108 -108 -73 -68 -108 hvcurveto
            return
          </CharString>
          <CharString index="7">
            65 -99 callgsubr
            return
          </CharString>
          <CharString index="8">
            -116 89 -72 112 116 72 80 103 59 -24 52 -47 25 return
          </CharString>
          <CharString index="9">
            -72 -5 -56 -70 -70 -6 56 72 vhcurveto
            -64 hlineto
            -115 -5 43 -73 102 hhcurveto
            106 33 67 121 hvcurveto
            255 return
          </CharString>
          <CharString index="10">
            hhcurveto
            -212 -104 callgsubr
            156 return
          </CharString>
          <CharString index="11">
            680 140 return
          </CharString>
          <CharString index="12">
            47 40 278 rmoveto
            -170 114 -118 150 104 75 59 71 34 vhcurveto
            -120 70 546 133 callsubr
            477 -5 rmoveto
            -138 -95 -85 -108 -107 -95 90 138 138 95 80 107 108 95 -85 -138 vhcurveto
            return
          </CharString>
          <CharString index="13">
            51 -32 -57 35 -85 hhcurveto
            -135 -90 -94 -137 -137 92 return
          </CharString>
          <CharString index="14">
            174 -107 callsubr
            return
          </CharString>
          <CharString index="15">
            -115 -45 76 115 hvcurveto
            220 320 -236 vlineto
            -99 -66 -76 -94 vhcurveto
            160 -5 callgsubr
            return
          </CharString>
          <CharString index="16">
            -76 callgsubr
            -121 -91 -54 -120 10 vhcurveto
            202 callsubr
            -14 115 89 150 vvcurveto
            136 -86 96 -37 callgsubr
            506 vlineto
            return
          </CharString>
          <CharString index="17">
            -46 callgsubr
            -174 -39 callgsubr
            return
          </CharString>
          <CharString index="18">
            rmoveto
            64 hlineto
            97 -3 41 78 105 266 callsubr
            -113 -201 hlineto
            -35 callsubr
            145 vlineto
            -1 22 22 -47 callsubr
            -141 -71 -108 -127 6 hvcurveto
            return
          </CharString>
          <CharString index="19">
            -76 45 -25 vlineto
            -32 -13 -17 -33 vhcurveto
            -38 vlineto
            58 33 26 77 24 -3 28 -6 33 hvcurveto
            return
          </CharString>
          <CharString index="20">
            rmoveto
            294 -59 vlineto
            -105 -68 -33 -76 -110 -72 53 114 148 105 30 143 vhcurveto
            97 171 158 60 return
          </CharString>
          <CharString index="21">
            -154 112 -103 154 157 105 102 157 vhcurveto
            -65 hlineto
            -123 -74 -76 -123 -120 -81 77 120 139 97 61 139 1 vhcurveto
            return
          </CharString>
          <CharString index="22">
            -17 callsubr
            -22 -27 return
          </CharString>
          <CharString index="23">
            18 callsubr
            -327 -77 callsubr
            return
          </CharString>
          <CharString index="24">
            rmoveto
            -115 -49 74 117 194 callgsubr
            298 -244 rlineto
            -51 -8 -44 -44 -82 hhcurveto
            return
          </CharString>
          <CharString index="25">
            -56 callgsubr
            -370 vmoveto
            -86 callgsubr
            return
          </CharString>
          <CharString index="26">
            -46 callsubr
            112 91 51 99 26 vhcurveto
            -3 15 16 -1 17 hhcurveto
            return
          </CharString>
          <CharString index="27">
            -48 callgsubr
            -369 1 callsubr
            return
          </CharString>
          <CharString index="28">
            rmoveto
            -65 hlineto
            -56 -15 -44 -41 -93 hhcurveto
            -99 -61 65 87 87 61 63 99 93 44 -41 -56 15 hvcurveto
            65 hlineto
            83 -9 -83 74 -125 hhcurveto
            -24 -23 -3 -5 -22 hvcurveto
            -41 14 -35 29 45 vvcurveto
            62 57 28 75 vhcurveto
            176 180 165 60 return
          </CharString>
          <CharString index="29">
            -107 callsubr
            endchar
          </CharString>
          <CharString index="30">
            -351 -102 callsubr
            return
          </CharString>
          <CharString index="31">
            4 callgsubr
            138 95 50 125 hvcurveto
            return
          </CharString>
          <CharString index="32">
            -6 534 546 rmoveto
            -70 -312 hlineto
            -123 -65 -61 -98 -98 -64 61 123 vhcurveto
            312 -69 -325 vlineto
            -157 100 -74 113 75 68 31 68 38 vhcurveto
            -89 return
          </CharString>
          <CharString index="33">
            -109 -21 72 109 hvcurveto
            262 260 -262 vlineto
            -109 -21 -72 -109 vhcurveto
            return
          </CharString>
          <CharString index="34">
            -60 527 -72 callsubr
            return
          </CharString>
          <CharString index="35">
            -196 hlineto
            -74 callgsubr
            return
          </CharString>
          <CharString index="36">
            -60 527 -196 vlineto
            -27 callgsubr
            return
          </CharString>
          <CharString index="37">
            -106 callsubr
            396 402 -36 callsubr
            return
          </CharString>
          <CharString index="38">
            rmoveto
            -203 327 107 -159 vvcurveto
            -56 -43 -38 -86 -76 -47 48 67 -3 vhcurveto
            -72 hlineto
            -105 6 72 -66 120 hhcurveto
            120 80 62 88 hvcurveto
            217 -327 -116 162 vvcurveto
            52 43 45 80 77 42 -51 -64 3 vhcurveto
            72 hlineto
            105 -6 -66 66 -116 hhcurveto
            -120 -80 -73 -88 hvcurveto
            return
          </CharString>
          <CharString index="39">
            112 callsubr
            -36 callgsubr
            return
          </CharString>
          <CharString index="40">
            hhcurveto
            -158 -121 114 177 178 121 113 158 101 84 -46 -81 43 hvcurveto
            85 hlineto
            125 -57 -118 63 -138 hhcurveto
            1 callgsubr
            hvcurveto
            return
          </CharString>
          <CharString index="41">
            73 93 142 -116 18 -112 -79 -60 13 81 78 68 13 75 hvcurveto
            208 callsubr
            return
          </CharString>
          <CharString index="42">
            27 22 22 27 return
          </CharString>
          <CharString index="43">
            -60 140 285 callsubr
            return
          </CharString>
          <CharString index="44">
            -341 -232 hlineto
            -12 7 -13 5 -15 4 rrcurveto
            6 vlineto
            73 23 36 52 71 vvcurveto
            113 -87 70 -113 -113 -87 -70 -113 vhcurveto
            60 hlineto
            79 61 49 79 83 57 -48 -80 -81 -66 -41 -79 vhcurveto
            return
          </CharString>
          <CharString index="45">
            -680 -100 callsubr
            return
          </CharString>
          <CharString index="46">
            34 callgsubr
            -75 callgsubr
            vlineto
            return
          </CharString>
          <CharString index="47">
            vvcurveto
            -86 callsubr
            endchar
          </CharString>
          <CharString index="48">
            rmoveto
            -134 85 rlineto
            -66 vlineto
            134 -82 134 82 rlineto
            66 vlineto
            endchar
          </CharString>
          <CharString index="49">
            rmoveto
            50 hlineto
            28 3 18 13 21 40 15 -44 50 hhcurveto
            50 40 34 59 7 hvcurveto
            -50 hlineto
            -28 -3 -18 -13 -21 -40 -15 44 -50 hhcurveto
            -50 -40 -34 -59 -7 hvcurveto
            return
          </CharString>
          <CharString index="50">
            116 callgsubr
            -19 callsubr
            vhcurveto
            120 -65 return
          </CharString>
          <CharString index="51">
            118 81 -79 -118 -118 -81 -79 -118 -118 -81 79 118 118 81 79 118 hvcurveto
            return
          </CharString>
          <CharString index="52">
            rmoveto
            0 vlineto
            1 vlineto
            -3 5 -4 6 -3 5 rrcurveto
            -10 21 -7 24 27 vvcurveto
            73 40 39 63 67 35 -40 -64 -2 vhcurveto
            55 hlineto
            88 3 -54 70 -99 hhcurveto
            -101 -51 -69 -72 -3 hvcurveto
            80 -65 -59 10 -103 hhcurveto
            -27 -60 32 hlineto
            121 47 -24 -105 69 hvcurveto
            72 -71 -61 0 -103 hhcurveto
            -27 -60 32 hlineto
            return
          </CharString>
          <CharString index="53">
            rmoveto
            -57 vlineto
            205 115 rlineto
            70 vlineto
            endchar
          </CharString>
          <CharString index="54">
            -52 -103 callgsubr
            return
          </CharString>
          <CharString index="55">
            -127 -86 -76 -128 -86 39 -63 64 -31 hvcurveto
            -71 -15 -62 -39 -90 hhcurveto
            return
          </CharString>
          <CharString index="56">
            -66 callsubr
            hlineto
            return
          </CharString>
          <CharString index="57">
            -104 -103 -17 -124 -126 95 -16 119 71 61 -4 -86 -68 -43 -37 -86 -92 -61 55 83 -5 hvcurveto
            291 callsubr
            144 hlineto
            17 callsubr
            return
          </CharString>
          <CharString index="58">
            -151 -72 -74 -115 return
          </CharString>
          <CharString index="59">
            451 489 rmoveto
            -86 -47 -57 -118 vhcurveto
            -141 287 141 hlineto
            118 47 -55 -89 hvcurveto
            -376 201 rmoveto
            -690 70 289 108 vlineto
            187 -289 rlineto
            91 hlineto
            -196 292 rlineto
            128 16 59 79 102 vvcurveto
            115 -76 86 -160 vhcurveto
            return
          </CharString>
          <CharString index="60">
            -1 21 hhcurveto
            150 124 38 24 callgsubr
            return
          </CharString>
          <CharString index="61">
            -166 -20 -9 -131 vhcurveto
            -37 -179 hlineto
            -144 93 -85 142 return
          </CharString>
          <CharString index="62">
            rmoveto
            -110 152 rlineto
            -65 hlineto
            99 -152 rlineto
            return
          </CharString>
          <CharString index="63">
            rmoveto
            25 -18 17 -25 -25 -18 -17 -25 -25 18 -17 25 25 18 17 25 vhcurveto
            return
          </CharString>
          <CharString index="64">
            90 60 -41 -90 -90 -58 -57 -90 -89 -63 57 89 hvcurveto
            -60 hlineto
            -123 89 -78 123 123 85 79 123 33 -8 31 -16 26 vhcurveto
            175 -344 return
          </CharString>
          <CharString index="65">
            -94 callsubr
            -93 133 -35 callgsubr
            hvcurveto
            -195 65 return
          </CharString>
          <CharString index="66">
            -60 142 -23 callgsubr
            return
          </CharString>
          <CharString index="67">
            -11 callsubr
            -23 -20 -3 -7 -19 hvcurveto
            -728 -60 650 hlineto
            59 callsubr
            -33 -12 -26 -18 -18 -24 rrcurveto
            70 -40 -86 25 callgsubr
            106 79 -55 -85 16 hvcurveto
            -1 0 0 -1 vvcurveto
            return
          </CharString>
          <CharString index="68">
            109 70 67 109 return
          </CharString>
          <CharString index="69">
            -60 415 -52 vlineto
            -228 -23 7 -264 vhcurveto
            -194 vlineto
            -124 65 -90 126 122 69 87 124 vhcurveto
            -66 hlineto
            -90 -37 -61 -88 -90 -35 64 90 vhcurveto
            136 vlineto
            return
          </CharString>
          <CharString index="70">
            rmoveto
            15 208 -256 -279 vlineto
            54 37 17 72 132 vvcurveto
            return
          </CharString>
          <CharString index="71">
            rmoveto
            -82 -55 -36 -53 -30 hvcurveto
            198 return
          </CharString>
          <CharString index="72">
            -129 -24 callgsubr
            -32 callgsubr
            return
          </CharString>
          <CharString index="73">
            rmoveto
            -87 60 -56 80 80 60 56 87 86 -60 56 -80 -80 -60 -56 -86 vhcurveto
            140 97 rmoveto
            45 29 -28 -69 -69 -29 -29 -45 -45 -30 29 69 69 30 28 45 hvcurveto
            return
          </CharString>
          <CharString index="74">
            83 callsubr
            294 vlineto
            108 return
          </CharString>
          <CharString index="75">
            rmoveto
            -104 -87 -62 -112 -91 58 -67 93 -20 hvcurveto
            -80 -41 -92 -58 -106 vvcurveto
            -95 69 -68 106 74 43 33 27 17 vhcurveto
            -121 65 246 -57 vlineto
            -68 -40 -57 -92 -78 -42 48 63 92 103 44 81 44 vhcurveto
            return
          </CharString>
          <CharString index="76">
            -42 callsubr
            319 vlineto
            return
          </CharString>
          <CharString index="77">
            -60 376 -14 callgsubr
            return
          </CharString>
          <CharString index="78">
            rmoveto
            -460 -100 callsubr
            -1346 -60 1141 79 callsubr
            -105 -124 -105 -16 79 102 -3 vhcurveto
            0 vlineto
            149 -113 94 -149 -45 callgsubr
            96 81 39 68 45 vhcurveto
            -60 25 48 -41 91 hhcurveto
            167 22 131 145 hvcurveto
            84 vlineto
            -575 -306 rmoveto
            -86 callgsubr
            370 vmoveto
            -80 callgsubr
            endchar
          </CharString>
          <CharString index="79">
            -60 444 -15 callsubr
            return
          </CharString>
          <CharString index="80">
            56 -35 -64 39 -92 hhcurveto
            return
          </CharString>
          <CharString index="81">
            -10 callgsubr
            -23 -20 -3 -7 -19 hvcurveto
            return
          </CharString>
          <CharString index="82">
            rmoveto
            -198 229 198 hlineto
            205 hmoveto
            60 return
          </CharString>
          <CharString index="83">
            -144 -1 -51 -200 vhcurveto
            return
          </CharString>
          <CharString index="84">
            -66 callgsubr
            vlineto
            return
          </CharString>
          <CharString index="85">
            176 9 21 return
          </CharString>
          <CharString index="86">
            rmoveto
            60 -725 -28 callsubr
            2 -115 68 -72 108 -20 -148 -158 rcurveline
            81 hlineto
            129 153 rlineto
            2 hlineto
            2 3 0 2 hhcurveto
            124 -153 rlineto
            81 hlineto
            -144 161 rlineto
            86 21 51 62 75 vvcurveto
            142 -116 18 -112 -79 -60 13 81 78 68 13 75 vhcurveto
            164 callgsubr
          </CharString>
          <CharString index="87">
            -69 callgsubr
            -11 callsubr
            return
          </CharString>
          <CharString index="88">
            -124 0 99 133 return
          </CharString>
          <CharString index="89">
            106 callsubr
            endchar
          </CharString>
          <CharString index="90">
            -27 -27 -22 return
          </CharString>
          <CharString index="91">
            -244 rmoveto
            -161 -57 106 134 6 hvcurveto
            178 4 19 61 174 vvcurveto
            17 216 -259 vlineto
            -150 -70 -87 -131 vhcurveto
            return
          </CharString>
          <CharString index="92">
            22 callsubr
            -118 -51 60 92 -6 hvcurveto
            -64 hlineto
            return
          </CharString>
          <CharString index="93">
            159 -4 149 21 164 vvcurveto
            108 -73 72 -105 return
          </CharString>
          <CharString index="94">
            -140 65 -104 139 81 52 38 46 28 vhcurveto
            return
          </CharString>
          <CharString index="95">
            60 callgsubr
            101 32 return
          </CharString>
          <CharString index="96">
            62 hlineto
            106 7 -61 76 -108 hhcurveto
            return
          </CharString>
          <CharString index="97">
            -69 117 146 47 101 120 3 vhcurveto
            return
          </CharString>
          <CharString index="98">
            109 108 return
          </CharString>
          <CharString index="99">
            vlineto
            -71 34 75 -59 104 hhcurveto
            150 114 118 170 170 -114 108 -150 -104 -75 -58 -71 -34 hvcurveto
            405 -149 rmoveto
            -138 -95 -90 -108 -107 -95 85 138 138 95 85 107 108 95 -80 -138 vhcurveto
            endchar
          </CharString>
          <CharString index="100">
            rmoveto
            205 -115 rlineto
            57 vlineto
            -205 128 rlineto
            return
          </CharString>
          <CharString index="101">
            116 72 80 103 59 -24 52 -47 25 hvcurveto
            return
          </CharString>
          <CharString index="102">
            -102 callgsubr
            endchar
          </CharString>
          <CharString index="103">
            -35 vlineto
            -24 callsubr
            return
          </CharString>
          <CharString index="104">
            hlineto
            49 40 21 50 54 vvcurveto
            85 -64 82 -121 vhcurveto
            2 -59 rmoveto
            66 54 -36 -79 -62 -36 -44 -51 -31 hvcurveto
            -85 -77 36 96 87 60 33 69 hvcurveto
            endchar
          </CharString>
          <CharString index="105">
            41 810 -18 callgsubr
            -853 -60 316 -98 vlineto
            226 callgsubr
            14 14 1 2 13 vhcurveto
            -121 -112 rlineto
            -5 83 vlineto
            214 235 rlineto
            -4 19 21 -2 21 209 callsubr
            -83 36 -61 60 -33 hvcurveto
            -52 -20 -49 -31 -89 hhcurveto
            -114 -58 49 117 hvcurveto
            98 288 callsubr
            return
          </CharString>
          <CharString index="106">
            hhcurveto
            9 8 1 1 9 hvcurveto
            -201 -214 rlineto
            83 hlineto
            266 292 rlineto
            return
          </CharString>
          <CharString index="107">
            73 76 -6 -90 -78 -57 -34 -86 return
          </CharString>
          <CharString index="108">
            65 680 vlineto
            return
          </CharString>
          <CharString index="109">
            16 198 387 rmoveto
            -77 -23 -55 -68 -98 vvcurveto
            -134 98 -85 151 152 98 85 134 98 -57 68 -75 23 vhcurveto
            63 26 50 61 82 vvcurveto
            110 -78 85 -153 -152 -78 -85 -110 -82 46 -56 67 -31 vhcurveto
            117 304 rmoveto
            103 63 -48 -92 -77 -66 -59 -100 -99 -66 59 77 92 63 48 102 hvcurveto
            -335 vmoveto
            102 83 -46 -112 -97 -72 -62 -113 -112 -72 62 97 112 83 46 101 hvcurveto
            endchar
          </CharString>
          <CharString index="110">
            91 callgsubr
            201 callsubr
            return
          </CharString>
          <CharString index="111">
            rmoveto
            -460 -100 callsubr
            -1451 -60 1246 107 callsubr
            -304 -120 vlineto
            -96 callgsubr
            174 -84 206 callsubr
          </CharString>
          <CharString index="112">
            69 325 hlineto
            89 callsubr
            89 -70 -546 70 312 vlineto
            123 65 61 98 98 64 -61 -123 vhcurveto
            return
          </CharString>
          <CharString index="113">
            -23 514 8 -87 callsubr
            -672 234 callsubr
            return
          </CharString>
          <CharString index="114">
            -229 -55 vlineto
            -156 -75 -53 -115 -100 79 -70 99 -70 callgsubr
            return
          </CharString>
          <CharString index="115">
            154 466 hmoveto
            96 callgsubr
            -101 139 12 12 1 2 10 vhcurveto
            -210 -252 rlineto
            83 hlineto
            254 326 rlineto
            -300 165 rmoveto
            189 300 -200 vlineto
            -94 -3 -53 -80 -91 hhcurveto
            -116 -37 69 116 hvcurveto
            return
          </CharString>
          <CharString index="116">
            vhcurveto
            -126 -104 callgsubr
            156 return
          </CharString>
          <CharString index="117">
            14 callsubr
            51 return
          </CharString>
          <CharString index="118">
            rmoveto
            88 56 -56 -88 -88 -56 -56 -88 114 callsubr
            return
          </CharString>
          <CharString index="119">
            -11 507 -81 rmoveto
            482 -60 -14 23 callgsubr
            201 60 -684 113 callgsubr
            -91 57 -61 79 -24 hvcurveto
            -91 177 callgsubr
            80 vlineto
            -1 6 7 0 6 hhcurveto
            58 63 17 27 21 hvcurveto
            return
          </CharString>
          <CharString index="120">
            rmoveto
            16 -50 vlineto
            -48 -20 -28 -65 -65 -20 28 48 vhcurveto
            -50 -15 hlineto
            -64 45 -57 90 90 45 56 64 vhcurveto
            return
          </CharString>
          <CharString index="121">
            -31 callsubr
            119 return
          </CharString>
          <CharString index="122">
            rmoveto
            -161 -55 117 134 6 hvcurveto
            178 4 19 61 174 vvcurveto
            6 216 -261 vlineto
            -150 -72 -85 -131 vhcurveto
            return
          </CharString>
          <CharString index="123">
            hhcurveto
            -27 -60 32 hlineto
            127 46 -27 -117 76 hvcurveto
            87 -78 -59 0 -110 hhcurveto
            -27 -60 32 hlineto
            return
          </CharString>
          <CharString index="124">
            -45 28 62 -35 76 hhcurveto
            127 59 76 82 46 -27 38 -29 14 hvcurveto
            return
          </CharString>
          <CharString index="125">
            64 198 -393 1 callsubr
            return
          </CharString>
          <CharString index="126">
            154 319 306 rmoveto
            -116 -37 69 116 hvcurveto
            189 300 -192 vlineto
            -97 -53 -85 -94 vhcurveto
            147 -306 rmoveto
            96 callgsubr
            -104 139 81 52 38 46 28 vhcurveto
            return
          </CharString>
          <CharString index="127">
            62 532 690 41 callsubr
            return
          </CharString>
          <CharString index="128">
            -23 callsubr
            endchar
          </CharString>
          <CharString index="129">
            215 callgsubr
            -11 callgsubr
            return
          </CharString>
          <CharString index="130">
            -55 -37 -33 -61 -75 vvcurveto
            -125 92 -86 133 125 83 74 83 9 vhcurveto
            return
          </CharString>
          <CharString index="131">
            rmoveto
            -983 175 callgsubr
            10 1 1 10 hvcurveto
            -145 -145 rlineto
            83 hlineto
            205 223 rlineto
            -194 -76 callgsubr
            vhcurveto
            64 hlineto
            137 -85 95 -37 callgsubr
            391 vlineto
            return
          </CharString>
          <CharString index="132">
            -87 478 690 rmoveto
            -428 -57 348 hlineto
            -348 -577 rlineto
            -56 428 56 -348 vlineto
            348 577 rlineto
            return
          </CharString>
          <CharString index="133">
            -66 hlineto
            -99 -2 -31 -62 -97 hhcurveto
            -80 return
          </CharString>
          <CharString index="134">
            vvcurveto
            37 callsubr
            vhcurveto
            8 return
          </CharString>
          <CharString index="135">
            306 -94 callgsubr
            return
          </CharString>
          <CharString index="136">
            rmoveto
            -92 callsubr
            -1486 105 callsubr
            89 46 -43 return
          </CharString>
          <CharString index="137">
            -156 -75 -53 -115 return
          </CharString>
          <CharString index="138">
            -46 vlineto
            -118 15 -69 82 -25 vhcurveto
            -6 vlineto
            return
          </CharString>
          <CharString index="139">
            16 51 callgsubr
            64 hlineto
            60 callgsubr
            return
          </CharString>
          <CharString index="140">
            93 55 -78 hlineto
            -55 -18 20 54 hvcurveto
            362 151 55 -151 137 -70 -137 290 callsubr
          </CharString>
          <CharString index="141">
            52 38 14 75 3 143 rrcurveto
            return
          </CharString>
          <CharString index="142">
            vlineto
            82 callgsubr
            74 50 26 41 30 hvcurveto
            return
          </CharString>
          <CharString index="143">
            15 89 731 rmoveto
            -406 62 vlineto
            71 30 59 45 80 hhcurveto
            120 58 -67 -120 -111 -56 -83 -122 -94 -66 49 81 -22 hvcurveto
            -65 hlineto
            -111 22 83 -79 142 hhcurveto
            169 74 117 139 116 -56 130 -177 -76 -71 -40 -47 -29 hvcurveto
            256 362 60 vlineto
            endchar
          </CharString>
          <CharString index="144">
            -145 76 -108 190 return
          </CharString>
          <CharString index="145">
            81 -22 -65 45 -86 hhcurveto
            -72 -50 -25 -44 -32 hvcurveto
            90 -38 -89 52 -111 hhcurveto
            -45 callgsubr
            87 73 32 56 46 hvcurveto
            31 -110 92 -64 129 13 183 callsubr
            return
          </CharString>
          <CharString index="146">
            rmoveto
            -75 -139 rlineto
            50 hlineto
            95 139 rlineto
            -219 hmoveto
            -65 -139 rlineto
            50 hlineto
            85 139 rlineto
            endchar
          </CharString>
          <CharString index="147">
            53 hlineto
            38 5 36 22 31 59 22 -64 73 hhcurveto
            64 52 38 86 16 hvcurveto
            -53 hlineto
            -38 -5 -36 -22 -31 -58 -23 64 -73 hhcurveto
            -64 -52 -38 -86 -16 hvcurveto
            return
          </CharString>
          <CharString index="148">
            rmoveto
            -578 vlineto
            -387 578 rlineto
            -70 -690 70 578 hlineto
            387 -578 rlineto
            70 690 hlineto
            return
          </CharString>
          <CharString index="149">
            hhcurveto
            50 callsubr
          </CharString>
          <CharString index="150">
            10 95 114 callgsubr
            return
          </CharString>
          <CharString index="151">
            -60 50 -41 76 vhcurveto
            77 55 267 callsubr
            return
          </CharString>
          <CharString index="152">
            rmoveto
            -281 hlineto
            141 386 rlineto
            endchar
          </CharString>
          <CharString index="153">
            -12 callgsubr
            -44 -72 return
          </CharString>
          <CharString index="154">
            351 hmoveto
            83 hlineto
            266 325 rlineto
            74 vlineto
            119 vmoveto
            -313 -90 hlineto
            136 callsubr
            248 vlineto
            21 220 rmoveto
            60 -761 -60 vlineto
            return
          </CharString>
          <CharString index="155">
            -60 527 -196 vlineto
            -42 callsubr
            vlineto
            return
          </CharString>
          <CharString index="156">
            -137 92 -93 133 -35 callgsubr
            vhcurveto
            -195 -91 callsubr
            return
          </CharString>
          <CharString index="157">
            92 64 39 56 35 hvcurveto
            80 callgsubr
          </CharString>
          <CharString index="158">
            119 51 73 106 88 60 -44 -73 14 vhcurveto
            -173 121 callgsubr
            return
          </CharString>
          <CharString index="159">
            vlineto
            227 -141 -53 7 -152 hhcurveto
            -27 -60 32 hlineto
            144 14 -12 -162 111 hvcurveto
            return
          </CharString>
          <CharString index="160">
            -67 -54 11 76 79 68 2 75 hvcurveto
            164 169 return
          </CharString>
          <CharString index="161">
            -34 61 10 rmoveto
            472 60 -361 hlineto
            121 110 216 159 185 vvcurveto
            139 -93 73 -127 -130 -91 -81 -149 -7 vhcurveto
            66 hlineto
            96 5 52 74 106 hhcurveto
            114 38 -71 -83 -156 -197 -147 -184 -161 hvcurveto
            endchar
          </CharString>
          <CharString index="162">
            86 56 35 51 32 hvcurveto
            -67 callgsubr
          </CharString>
          <CharString index="163">
            151 vlineto
            -184 7 79 -132 186 hhcurveto
            108 70 46 67 32 hvcurveto
            -237 vlineto
            return
          </CharString>
          <CharString index="164">
            rmoveto
            117 332 60 -749 -60 352 -117 vlineto
            -136 -14 -95 -99 -141 vvcurveto
            return
          </CharString>
          <CharString index="165">
            rmoveto
            -73 -54 38 77 76 53 42 66 1 hvcurveto
            0 vlineto
            56 63 17 27 21 hvcurveto
            -116 vlineto
            -97 -1 -35 -65 -96 hhcurveto
            195 -109 rmoveto
            537 -59 75 callgsubr
            200 60 return
          </CharString>
          <CharString index="166">
            -17 -26 -9 -32 -36 vvcurveto
            122 callsubr
            vhcurveto
            -6 vlineto
            return
          </CharString>
          <CharString index="167">
            rmoveto
            -204 hlineto
            44 36 12 68 3 132 rrcurveto
            346 -35 hlineto
            -144 -1 -57 -200 vhcurveto
            279 -270 63 callgsubr
            return
          </CharString>
          <CharString index="168">
            -39 callgsubr
            -703 -60 217 -4 callsubr
            -113 91 hlineto
            144 callsubr
            return
          </CharString>
          <CharString index="169">
            -148 66 -106 173 142 85 84 142 vhcurveto
            -65 hlineto
            -110 -55 -56 -110 -120 -51 66 120 vhcurveto
            415 return
          </CharString>
          <CharString index="170">
            -74 236 272 rmoveto
            -272 70 272 vlineto
            220 418 rlineto
            -76 hlineto
            -180 -354 -180 354 rlineto
            -75 hlineto
            return
          </CharString>
          <CharString index="171">
            66 callsubr
            hlineto
            201 callsubr
            return
          </CharString>
          <CharString index="172">
            -197 vlineto
            59 -36 -66 42 -92 hhcurveto
            return
          </CharString>
          <CharString index="173">
            -60 133 -224 return
          </CharString>
          <CharString index="174">
            70 287 690 rmoveto
            -212 -690 41 callgsubr
            574 88 callsubr
            return
          </CharString>
          <CharString index="175">
            hhcurveto
            -149 -68 100 243 callsubr
            13 164 vvcurveto
            108 -73 62 -105 -24 -22 -3 -7 -19 vhcurveto
            return
          </CharString>
          <CharString index="176">
            -66 hlineto
            -109 1 -31 -62 -90 hhcurveto
            -90 -30 64 90 hvcurveto
            156 return
          </CharString>
          <CharString index="177">
            -195 -76 callgsubr
            return
          </CharString>
          <CharString index="178">
            -99 -74 -82 -101 -100 -72 54 97 101 69 58 108 vhcurveto
            26 57 return
          </CharString>
          <CharString index="179">
            365 -65 -35 hlineto
            -54 -6 -21 -57 vhcurveto
            -188 209 449 60 -1044 -60 530 -206 hlineto
            58 -34 -61 41 -89 hhcurveto
            -146 -96 -102 -152 hvcurveto
            65 hlineto
            120 72 74 115 92 62 -59 -88 16 vhcurveto
            -367 return
          </CharString>
          <CharString index="180">
            -35 vlineto
            288 callgsubr
            96 -131 185 21 callsubr
          </CharString>
          <CharString index="181">
            383 11 callgsubr
            return
          </CharString>
          <CharString index="182">
            rmoveto
            339 60 -339 hlineto
            endchar
          </CharString>
          <CharString index="183">
            rmoveto
            320 -237 hlineto
            -11 -1 -10 -1 -10 vhcurveto
            -318 262 rlineto
            320 -674 rmoveto
            -100 callsubr
            return
          </CharString>
          <CharString index="184">
            40 345 rmoveto
            -206 156 return
          </CharString>
          <CharString index="185">
            rmoveto
            154 callgsubr
            -212 -100 callsubr
            -985 181 callsubr
            90 51 98 27 vhcurveto
            -2 12 12 -1 13 hhcurveto
            return
          </CharString>
          <CharString index="186">
            171 callsubr
            vlineto
            -133 0 return
          </CharString>
          <CharString index="187">
            -55 -103 callgsubr
            return
          </CharString>
          <CharString index="188">
            -1 -103 callsubr
            return
          </CharString>
          <CharString index="189">
            -46 62 46 vlineto
            141 115 67 172 172 115 -66 -142 vhcurveto
            return
          </CharString>
          <CharString index="190">
            -13 callsubr
            -330 65 return
          </CharString>
          <CharString index="191">
            rmoveto
            58 hlineto
            26 5 18 18 32 hhcurveto
            32 27 -25 -41 -47 -30 -36 -44 -38 hvcurveto
            -97 -82 rlineto
            -39 237 50 -161 vlineto
            68 53 rlineto
            61 51 27 37 51 vvcurveto
            62 -48 53 -72 -72 -37 -42 -51 -4 vhcurveto
            endchar
          </CharString>
          <CharString index="192">
            vlineto
            145 42 46 182 hvcurveto
            99 403 -189 vlineto
            38 -29 -49 24 -76 hhcurveto
            -119 -83 -84 -120 return
          </CharString>
          <CharString index="193">
            -118 -79 -50 -98 232 callsubr
            hvcurveto
            -55 -34 -33 -57 -80 vvcurveto
            -125 90 -88 135 125 83 74 83 9 vhcurveto
            -65 hlineto
            -56 -15 -44 -41 -93 hhcurveto
            -101 -59 67 87 99 67 49 118 hvcurveto
            return
          </CharString>
          <CharString index="194">
            rmoveto
            -177 197 rlineto
            -63 hlineto
            -184 -197 199 callgsubr
            endchar
          </CharString>
          <CharString index="195">
            142 vlineto
            188 96 -109 -178 -178 -96 -109 -188 hvcurveto
            return
          </CharString>
          <CharString index="196">
            157 -100 74 -113 -75 -68 -31 -68 -38 vhcurveto
            return
          </CharString>
          <CharString index="197">
            136 callgsubr
            vlineto
            return
          </CharString>
          <CharString index="198">
            140 -5 vhcurveto
            return
          </CharString>
          <CharString index="199">
            rmoveto
            90 59 -56 -88 -88 -59 -56 -90 148 callgsubr
            689 256 callgsubr
            return
          </CharString>
          <CharString index="200">
            rmoveto
            -77 62 67 vlineto
            103 23 55 86 86 23 -55 -103 vhcurveto
            -30 -147 -60 140 -62 callsubr
            -136 40 vlineto
            119 -38 89 -133 -133 -38 -89 -119 vhcurveto
            endchar
          </CharString>
          <CharString index="201">
            -139 -1 -53 -181 -3 vhcurveto
            33 -40 -60 16 -72 hhcurveto
            return
          </CharString>
          <CharString index="202">
            -102 callsubr
            endchar
          </CharString>
          <CharString index="203">
            157 callgsubr
            477 -5 rmoveto
            -138 -95 -85 -108 -107 -95 90 138 138 95 80 107 108 95 -85 -138 vhcurveto
            endchar
          </CharString>
          <CharString index="204">
            188 callsubr
            -122 return
          </CharString>
          <CharString index="205">
            -200 hlineto
            -27 callsubr
            return
          </CharString>
          <CharString index="206">
            rmoveto
            -60 40 vlineto
            -43 callsubr
            65 680 return
          </CharString>
          <CharString index="207" raw="1">
            f7d3f7c6 321d0b  
          </CharString>
          <CharString index="208">
            225 callgsubr
            128 -159 rlineto
            return
          </CharString>
          <CharString index="209">
            -60 141 -190 return
          </CharString>
          <CharString index="210">
            -24 callsubr
            -1 -31 1 -29 3 -27 rrcurveto
            -113 -62 -91 -125 278 callsubr
            vhcurveto
            -14 callsubr
            return
          </CharString>
          <CharString index="211">
            -115 -45 76 115 194 callgsubr
            301 -249 rlineto
            -54 -26 -51 -36 -64 hhcurveto
            endchar
          </CharString>
          <CharString index="212">
            -60 527 -196 hlineto
            -27 callgsubr
            return
          </CharString>
          <CharString index="213">
            vvcurveto
            -90 callgsubr
            vhcurveto
            -84 callsubr
            return
          </CharString>
          <CharString index="214">
            77 callgsubr
            -19 callsubr
            vhcurveto
            120 return
          </CharString>
          <CharString index="215">
            76 -127 124 callsubr
            vlineto
            return
          </CharString>
          <CharString index="216">
            45 callgsubr
            endchar
          </CharString>
          <CharString index="217">
            53 hlineto
            76 29 32 90 vhcurveto
            56 vlineto
            -131 -58 -49 -115 hvcurveto
            -53 -76 -55 76 vlineto
            return
          </CharString>
          <CharString index="218">
            97 callsubr
            114 -55 119 return
          </CharString>
          <CharString index="219">
            208 callgsubr
            -72 -176 37 callsubr
            hvcurveto
            return
          </CharString>
          <CharString index="220">
            -57 182 hlineto
            -54 -29 -33 -53 -77 vvcurveto
            -131 return
          </CharString>
          <CharString index="221">
            90 callgsubr
            hvcurveto
            return
          </CharString>
          <CharString index="222">
            102 callgsubr
            endchar
          </CharString>
          <CharString index="223">
            94 111 hhcurveto
            return
          </CharString>
          <CharString index="224">
            104 -69 63 -101 -111 -51 -80 -97 vhcurveto
            64 hlineto
            67 27 51 73 77 26 -51 -58 -76 -50 -54 -102 -127 -102 73 143 157 106 73 156 -1 vhcurveto
            return
          </CharString>
          <CharString index="225">
            rmoveto
            -76 45 -25 vlineto
            -32 -13 -17 -33 vhcurveto
            -38 vlineto
            76 33 45 143 -27 hvcurveto
            endchar
          </CharString>
          <CharString index="226">
            vlineto
            -167 -1 -10 -200 vhcurveto
            return
          </CharString>
          <CharString index="227">
            -60 hlineto
            -131 -84 -49 -113 -42 callgsubr
            endchar
          </CharString>
          <CharString index="228">
            65 callsubr
            -143 -109 -100 -145 -145 109 return
          </CharString>
          <CharString index="229">
            -76 48 -53 58 -24 return
          </CharString>
          <CharString index="230">
            -236 478 444 rmoveto
            -109 -51 -66 -109 -117 -43 76 115 vhcurveto
            220 384 60 -582 91 callgsubr
            -145 66 return
          </CharString>
          <CharString index="231">
            -52 callsubr
            -77 callgsubr
            return
          </CharString>
          <CharString index="232">
            59 callgsubr
            95 135 7 hvcurveto
            -14 callsubr
            return
          </CharString>
          <CharString index="233">
            -39 callgsubr
            -689 -60 484 19 callgsubr
            -97 -77 -49 -78 -37 hvcurveto
            -169 93 hlineto
            144 callsubr
            return
          </CharString>
          <CharString index="234">
            -103 callsubr
            endchar
          </CharString>
          <CharString index="235">
            -69 39 73 -42 90 hhcurveto
            92 64 39 56 35 hvcurveto
            -198 return
          </CharString>
          <CharString index="236">
            50 -41 -78 25 -92 -7 callgsubr
            return
          </CharString>
          <CharString index="237">
            -54 27 rrcurveto
            47 38 69 69 91 vvcurveto
            105 -74 68 -119 -99 -87 -67 -106 -87 58 -63 100 -59 vhcurveto
            -45 -37 -86 -69 -82 -61 rrcurveto
            -6 vlineto
            endchar
          </CharString>
          <CharString index="238">
            hvcurveto
            0 vlineto
            1 0 0 1 hhcurveto
            127 69 60 89 114 -95 22 -109 -89 -55 11 64 70 79 1 62 hvcurveto
            156 149 hlineto
            endchar
          </CharString>
          <CharString index="239">
            -60 172 hlineto
            -61 -32 -40 -70 -86 27 callsubr
            return
          </CharString>
          <CharString index="240">
            -70 -119 157 callgsubr
            return
          </CharString>
          <CharString index="241">
            167 -66 callgsubr
            return
          </CharString>
          <CharString index="242">
            -24 -34 -12 -44 1 -50 rrcurveto
            return
          </CharString>
          <CharString index="243">
            116 callgsubr
            -19 callsubr
            vhcurveto
            90 -65 -112 vlineto
            -145 22 -125 167 167 22 125 145 vhcurveto
            54 return
          </CharString>
          <CharString index="244">
            574 rmoveto
            70 47 53 78 81 44 -48 -73 -72 -60 -54 -48 -39 vhcurveto
            -87 47 -55 47 69 vvcurveto
            -27 -375 rmoveto
            74 54 27 30 74 60 return
          </CharString>
          <CharString index="245">
            -104 86 -30 119 88 55 -11 -67 -66 -57 -24 -77 -104 -49 41 73 -11 return
          </CharString>
          <CharString index="246">
            -102 callsubr
            -261 return
          </CharString>
          <CharString index="247">
            -62 -97 hhcurveto
            -80 -40 222 callsubr
            return
          </CharString>
          <CharString index="248">
            vlineto
            266 callgsubr
            return
          </CharString>
          <CharString index="249">
            rmoveto
            0 65 163 203 60 return
          </CharString>
          <CharString index="250">
            190 hvcurveto
            8 58 hlineto
            -150 return
          </CharString>
          <CharString index="251">
            125 -48 79 -115 return
          </CharString>
          <CharString index="252">
            -577 rmoveto
            241 -73 vlineto
            -163 -248 rlineto
            -35 178 -71 58 71 50 42 vlineto
            -224 hmoveto
            116 179 rlineto
            -179 vlineto
            return
          </CharString>
          <CharString index="253">
            162 callgsubr
            -50 26 -41 41 return
          </CharString>
          <CharString index="254">
            -102 callgsubr
            64 148 callsubr
            29 97 111 hhcurveto
            return
          </CharString>
          <CharString index="255">
            hlineto
            126 -4 return
          </CharString>
          <CharString index="256">
            hlineto
            102 63 -25 -107 -124 -77 -17 -115 9 hvcurveto
            -54 vlineto
            140 -15 116 35 166 vvcurveto
            141 -91 49 -138 vhcurveto
            return
          </CharString>
          <CharString index="257">
            142 -96 99 -136 13 return
          </CharString>
          <CharString index="258">
            169 -106 callsubr
            735 571 rmoveto
            return
          </CharString>
          <CharString index="259">
            hhcurveto
            -218 -131 -103 -165 hvcurveto
            197 callgsubr
          </CharString>
          <CharString index="260">
            hlineto
            -118 -79 -50 -98 return
          </CharString>
          <CharString index="261">
            1 callsubr
            endchar
          </CharString>
          <CharString index="262">
            113 callgsubr
            -85 49 -58 70 -27 hvcurveto
            -50 -27 -33 -48 -68 vvcurveto
            -110 88 -71 100 return
          </CharString>
          <CharString index="263">
            95 hlineto
            -335 340 335 350 rlineto
            -91 hlineto
            -299 -323 rlineto
            323 -70 -690 70 310 vlineto
            endchar
          </CharString>
          <CharString index="264">
            99 175 -99 175 rlineto
            -71 hlineto
            102 -175 -102 -175 rlineto
            return
          </CharString>
          <CharString index="265">
            rmoveto
            102 175 rlineto
            -71 hlineto
            -99 -175 99 -175 rlineto
            71 hlineto
            return
          </CharString>
          <CharString index="266">
            135 callgsubr
            endchar
          </CharString>
          <CharString index="267">
            rmoveto
            17 17 2 3 15 hvcurveto
            -148 -156 rlineto
            -5 83 vlineto
            210 240 rlineto
            -182 -100 callsubr
            return
          </CharString>
          <CharString index="268">
            339 rmoveto
            -38 callgsubr
            return
          </CharString>
          <CharString index="269">
            -615 -101 732 rmoveto
            235 -146 -53 7 -152 255 callgsubr
            return
          </CharString>
          <CharString index="270">
            -1 -73 -35 -90 vvcurveto
            -51 30 -40 40 -17 vhcurveto
            -40 -21 -28 -42 -54 vvcurveto
            -78 57 -59 108 19 20 2 5 22 vhcurveto
            return
          </CharString>
          <CharString index="271">
            -62 hlineto
            -147 -68 -88 -135 -138 -74 92 129 2 vhcurveto
            201 callgsubr
            vlineto
            endchar
          </CharString>
          <CharString index="272">
            217 140 120 195 return
          </CharString>
          <CharString index="273">
            54 377 563 57 callsubr
            return
          </CharString>
          <CharString index="274">
            -60 312 -35 vlineto
            288 callgsubr
            return
          </CharString>
          <CharString index="275">
            219 callgsubr
            -16 -127 return
          </CharString>
          <CharString index="276">
            -17 vlineto
            -191 -26 -48 -201 vhcurveto
            return
          </CharString>
          <CharString index="277">
            153 111 103 153 return
          </CharString>
          <CharString index="278">
            -162 -267 -120 return
          </CharString>
          <CharString index="279">
            -109 -109 return
          </CharString>
          <CharString index="280">
            210 callsubr
            -37 -33 -61 -75 vvcurveto
            -125 return
          </CharString>
          <CharString index="281">
            64 151 vlineto
            -3 -16 -2 -17 -18 vvcurveto
            -138 97 -98 137 92 64 39 56 35 vhcurveto
            -198 vlineto
            return
          </CharString>
          <CharString index="282">
            -511 -106 callsubr
            return
          </CharString>
          <CharString index="283">
            hlineto
            144 callsubr
            -116 -46 -80 -129 vhcurveto
            32 callgsubr
            return
          </CharString>
          <CharString index="284">
            277 callsubr
            -292 -173 93 141 callsubr
            return
          </CharString>
          <CharString index="285">
            -55 40 730 rmoveto
            -60 417 vlineto
            -306 -670 rlineto
            78 hlineto
            293 677 rlineto
            53 vlineto
            endchar
          </CharString>
          <CharString index="286">
            rmoveto
            181 -633 69 633 181 57 -431 hlineto
            return
          </CharString>
          <CharString index="287">
            hlineto
            185 callgsubr
            return
          </CharString>
          <CharString index="288">
            -60 313 195 callgsubr
            return
          </CharString>
          <CharString index="289">
            451 rmoveto
            -198 229 198 hlineto
            return
          </CharString>
          <CharString index="290">
            rrcurveto
            -102 callgsubr
            return
          </CharString>
          <CharString index="291">
            164 vvcurveto
            108 -73 72 -105 -24 -22 -3 -7 -19 vhcurveto
            -785 -60 395 hlineto
            -206 -1 return
          </CharString>
          <CharString index="292">
            44 77 -43 106 -66 callgsubr
            return
          </CharString>
          <CharString index="293">
            114 callgsubr
            vlineto
            return
          </CharString>
          <CharString index="294">
            vvcurveto
            -124 102 -84 125 102 56 48 47 27 vhcurveto
            return
          </CharString>
          <CharString index="295">
            -6 vlineto
            -64 -23 -40 -47 -70 vvcurveto
            return
          </CharString>
          <CharString index="296">
            248 callsubr
            -208 return
          </CharString>
          <CharString index="297">
            -181 209 callgsubr
            hlineto
            return
          </CharString>
          <CharString index="298">
            -154 -94 callgsubr
            return
          </CharString>
          <CharString index="299">
            -48 -26 -32 -45 -67 vvcurveto
            -110 88 -65 100 68 42 26 38 26 vhcurveto
            -113 vlineto
            endchar
          </CharString>
          <CharString index="300">
            -26 100 340 rmoveto
            389 60 -389 hlineto
            endchar
          </CharString>
          <CharString index="301">
            -41 29 55 67 55 24 64 hvcurveto
            26 56 -22 hlineto
            -58 -67 6 67 69 66 8 58 hvcurveto
            return
          </CharString>
          <CharString index="302">
            vlineto
            -26 -27 -12 -36 -47 239 callgsubr
            return
          </CharString>
          <CharString index="303">
            rmoveto
            86 58 24 87 2 vhcurveto
            76 -64 hlineto
            -98 -21 -59 -88 -65 -47 45 64 vhcurveto
            endchar
          </CharString>
          <CharString index="304">
            88 vlineto
            264 276 rlineto
            -275 65 680 return
          </CharString>
          <CharString index="305">
            269 rmoveto
            115 callgsubr
            return
          </CharString>
          <CharString index="306">
            vvcurveto
            -115 90 -71 107 74 46 30 41 28 vhcurveto
            return
          </CharString>
          <CharString index="307">
            145 callgsubr
            546 -70 hlineto
            return
          </CharString>
          <CharString index="308">
            -148 79 -99 150 return
          </CharString>
          <CharString index="309">
            -60 vlineto
            161 return
          </CharString>
          <CharString index="310">
            -164 -106 callgsubr
            return
          </CharString>
          <CharString index="311">
            513 -43 callgsubr
            return
          </CharString>
          <CharString index="312">
            129 callgsubr
            32 callgsubr
            -93 -55 vlineto
            return
          </CharString>
          <CharString index="313">
            vlineto
            -145 22 -125 167 167 22 125 145 vhcurveto
            84 vlineto
            endchar
          </CharString>
          <CharString index="314">
            vmoveto
            211 callgsubr
          </CharString>
          <CharString index="315">
            164 179 return
          </CharString>
          <CharString index="316">
            hhcurveto
            127 86 76 128 128 -86 76 -127 -127 -86 -76 -128 return
          </CharString>
          <CharString index="317">
            65 callgsubr
            232 callsubr
            hvcurveto
            -55 return
          </CharString>
          <CharString index="318">
            250 callsubr
            150 callgsubr
            return
          </CharString>
          <CharString index="319">
            hhcurveto
            -82 -54 -36 -53 -30 hvcurveto
            return
          </CharString>
          <CharString index="320">
            -60 277 -255 return
          </CharString>
          <CharString index="321">
            262 callsubr
            vlineto
            return
          </CharString>
          <CharString index="322">
            83 callgsubr
            27 32 vhcurveto
            return
          </CharString>
          <CharString index="323">
            -120 hlineto
            116 callgsubr
            -19 callsubr
            vhcurveto
            120 return
          </CharString>
          <CharString index="324">
            rmoveto
            -138 -69 254 callgsubr
            return
          </CharString>
          <CharString index="325">
            -39 vlineto
            -113 -30 -89 -115 vhcurveto
            -33 -61 33 hlineto
            92 85 -51 -109 return
          </CharString>
          <CharString index="326">
            81 hlineto
            134 158 rlineto
            0 return
          </CharString>
          <CharString index="327">
            -144 93 -85 142 112 return
          </CharString>
          <CharString index="328">
            -60 133 -221 vlineto
            -145 return
          </CharString>
          <CharString index="329">
            46 92 hvcurveto
            145 vlineto
            -1 22 return
          </CharString>
          <CharString index="330">
            -2 12 12 -1 13 hhcurveto
            return
          </CharString>
          <CharString index="331">
            -35 vlineto
            -132 -1 -54 return
          </CharString>
          <CharString index="332">
            90 -29 -75 57 -106 hhcurveto
            return
          </CharString>
          <CharString index="333">
            167 -40 callgsubr
            return
          </CharString>
          <CharString index="334">
            31 callsubr
            -71 -26 -48 -56 -84 vvcurveto
            return
          </CharString>
          <CharString index="335">
            235 callsubr
            65 return
          </CharString>
          <CharString index="336">
            -85 -57 -44 -59 -60 -47 44 85 84 50 46 60 60 53 -46 -84 vhcurveto
            return
          </CharString>
          <CharString index="337">
            -58 -20 -55 -42 -86 hhcurveto
            -64 -89 25 91 71 50 32 73 hvcurveto
            8 64 return
          </CharString>
          <CharString index="338">
            -17 vlineto
            -187 -25 -50 -190 -2 vhcurveto
            return
          </CharString>
          <CharString index="339">
            -53 29 -43 45 -24 return
          </CharString>
          <CharString index="340">
            vlineto
            -6 -21 -22 -3 -21 hhcurveto
            -67 -58 32 81 70 41 42 72 hvcurveto
            return
          </CharString>
          <CharString index="341">
            -60 449 211 callsubr
            -137 return
          </CharString>
          <CharString index="342">
            hhcurveto
            -6 callsubr
            225 -429 return
          </CharString>
          <CharString index="343">
            -53 101 -166 rmoveto
            70 hlineto
            275 1106 rlineto
            -71 hlineto
            endchar
          </CharString>
          <CharString index="344">
            -120 -112 return
          </CharString>
          <CharString index="345">
            266 callsubr
            -14 -11 0 return
          </CharString>
          <CharString index="346">
            257 callsubr
            -55 32 return
          </CharString>
          <CharString index="347">
            490 hmoveto
            65 414 189 hlineto
            24 21 3 7 17 hvcurveto
            return
          </CharString>
          <CharString index="348">
            -58 hlineto
            90 -1 73 -53 -113 vvcurveto
            -95 -53 -60 -97 -80 -72 return
          </CharString>
          <CharString index="349">
            -320 130 hmoveto
            65 710 -136 -60 71 hlineto
            endchar
          </CharString>
          <CharString index="350">
            135 7 hvcurveto
            159 -4 149 return
          </CharString>
          <CharString index="351">
            60 -205 -740 1 callsubr
            return
          </CharString>
          <CharString index="352">
            -218 vlineto
            64 -33 -60 41 -89 hhcurveto
            return
          </CharString>
          <CharString index="353">
            -145 109 -100 143 return
          </CharString>
          <CharString index="354">
            hlineto
            129 callgsubr
            return
          </CharString>
          <CharString index="355">
            -206 -1 -13 -50 return
          </CharString>
          <CharString index="356">
            56 -118 190 return
          </CharString>
          <CharString index="357">
            -111 -44 hlineto
            return
          </CharString>
          <CharString index="358">
            hlineto
            267 callgsubr
            hlineto
            return
          </CharString>
          <CharString index="359">
            vvcurveto
            -60 50 -41 76 vhcurveto
            77 55 -75 hlineto
            -35 -21 16 30 return
          </CharString>
          <CharString index="360">
            123 65 61 98 98 64 -61 -123 vhcurveto
            -312 69 return
          </CharString>
          <CharString index="361">
            170 callsubr
            150 callsubr
            return
          </CharString>
          <CharString index="362">
            vvcurveto
            -106 85 -73 105 66 42 25 37 25 vhcurveto
            -122 65 return
          </CharString>
          <CharString index="363">
            hlineto
            -32 -31 -3 -7 -27 hvcurveto
            -43 14 -37 29 47 vvcurveto
            return
          </CharString>
          <CharString index="364">
            rmoveto
            65 callgsubr
            return
          </CharString>
          <CharString index="365">
            -55 vlineto
            283 callgsubr
            hvcurveto
            return
          </CharString>
          <CharString index="366">
            hvcurveto
            -114 19 79 -79 163 hhcurveto
            8 hlineto
            endchar
          </CharString>
          <CharString index="367">
            79 vhcurveto
            63 59 -63 hlineto
            -82 -80 return
          </CharString>
          <CharString index="368">
            -65 -47 45 64 91 65 21 94 return
          </CharString>
          <CharString index="369">
            -181 -151 return
          </CharString>
          <CharString index="370">
            128 -159 rlineto
            81 hlineto
            -151 168 rlineto
            return
          </CharString>
          <CharString index="371">
            -196 hlineto
            51 -32 -57 35 -85 hhcurveto
            -106 -78 -58 return
          </CharString>
          <CharString index="372">
            568 rmoveto
            -11 callsubr
            return
          </CharString>
          <CharString index="373">
            168 callsubr
            hvcurveto
            return
          </CharString>
          <CharString index="374">
            -75 hlineto
            -35 -21 16 30 30 21 15 35 hvcurveto
            45 return
          </CharString>
          <CharString index="375">
            -2 callgsubr
            140 60 return
          </CharString>
          <CharString index="376">
            460 rmoveto
            -460 -100 callsubr
            return
          </CharString>
          <CharString index="377">
            150 741 rmoveto
            -741 65 741 vlineto
            return
          </CharString>
          <CharString index="378">
            118 47 -55 -89 -86 -47 -57 -118 hvcurveto
            return
          </CharString>
          <CharString index="379">
            135 -100 93 -133 -86 -78 -45 -79 -33 return
          </CharString>
          <CharString index="380">
            vvcurveto
            127 -96 68 -123 10 vhcurveto
            67 vlineto
            return
          </CharString>
          <CharString index="381">
            -20 -39 hhcurveto
            -16 hlineto
            -6 -55 rlineto
            25 hlineto
            84 return
          </CharString>
          <CharString index="382">
            302 750 rmoveto
            -112 -89 -72 -116 return
          </CharString>
          <CharString index="383">
            hhcurveto
            172 callgsubr
            return
          </CharString>
          <CharString index="384">
            -99 callgsubr
            -205 return
          </CharString>
          <CharString index="385">
            -149 -57 96 134 10 return
          </CharString>
          <CharString index="386">
            hlineto
            52 38 14 75 return
          </CharString>
          <CharString index="387">
            vhcurveto
            -33 65 33 vlineto
            return
          </CharString>
          <CharString index="388">
            rlineto
            -4 83 vlineto
            return
          </CharString>
          <CharString index="389">
            rmoveto
            244 callsubr
            return
          </CharString>
          <CharString index="390">
            vhcurveto
            -42 -33 -83 -61 -84 -62 rrcurveto
            -6 vlineto
            return
          </CharString>
          <CharString index="391">
            -35 vlineto
            -140 -1 -52 -182 -3 vhcurveto
            return
          </CharString>
          <CharString index="392">
            -62 callsubr
            -138 return
          </CharString>
          <CharString index="393">
            vlineto
            208 callgsubr
            -52 -176 -145 return
          </CharString>
          <CharString index="394">
            154 rmoveto
            -116 -81 69 116 42 return
          </CharString>
          <CharString index="395">
            vlineto
            145 42 46 182 hvcurveto
            99 vlineto
            return
          </CharString>
          <CharString index="396">
            221 171 callgsubr
            endchar
          </CharString>
          <CharString index="397">
            -76 -55 76 vlineto
            endchar
          </CharString>
          <CharString index="398">
            -65 -261 65 return
          </CharString>
        <CharString name=".notdef">
          -115 0 vmoveto
          500 700 -500 hlineto
          250 -305 rmoveto
          -170 255 rlineto
          340 hlineto
          -140 -300 rmoveto
          170 255 rlineto
          -510 vlineto
          -370 -45 rmoveto
          170 255 170 -255 rlineto
          -370 555 rmoveto
          170 -255 -170 -255 rlineto
          endchar
        </CharString>
        <CharString name="A">
          -54 callgsubr
          -21 56 45 callsubr
        </CharString>
        <CharString name="AE">
          258 461 636 rmoveto
          -419 -244 vlineto
          595 416 rmoveto
          57 -392 vlineto
          -406 -690 rlineto
          76 hlineto
          94 161 rlineto
          277 -161 351 56 -281 263 251 56 -251 258 hlineto
          endchar
        </CharString>
        <CharString name="Aacute">
          -54 callgsubr
          -274 625 rmoveto
          -57 vlineto
          205 115 rlineto
          70 vlineto
          48 -697 45 callsubr
        </CharString>
        <CharString name="Abreve">
          -54 callgsubr
          -26 715 13 callsubr
          5 -659 45 callsubr
        </CharString>
        <CharString name="Acircumflex">
          -54 callgsubr
          -27 647 -34 callgsubr
          6 -525 45 callsubr
        </CharString>
        <CharString name="Adieresis">
          -54 callgsubr
          -236 603 -106 callgsubr
          150 hmoveto
          -107 callgsubr
          65 -547 45 callsubr
        </CharString>
        <CharString name="Agrave">
          -54 callgsubr
          -274 683 -7 callsubr
          253 -697 45 callsubr
        </CharString>
        <CharString name="Amacron">
          -54 callgsubr
          -331 623 rmoveto
          339 60 -339 hlineto
          310 -627 45 callsubr
        </CharString>
        <CharString name="Aogonek">
          70 53 hmoveto
          70 hlineto
          59 161 rlineto
          322 hlineto
          58 -161 rlineto
          -64 -8 -39 -37 -53 vvcurveto
          44 callsubr
          55 hlineto
          -253 688 rlineto
          -72 hlineto
          176 -473 45 callsubr
        </CharString>
        <CharString name="Aring">
          -54 callgsubr
          -107 694 rmoveto
          -32 -24 -22 -30 -30 -23 22 32 32 23 21 30 30 24 -21 -32 vhcurveto
          -154 -1 rmoveto
          -62 45 -38 55 55 45 38 62 62 -45 38 -55 -55 -45 -38 -62 vhcurveto
          240 -637 45 callsubr
        </CharString>
        <CharString name="Atilde">
          -54 callgsubr
          -299 589 -58 callsubr
          278 -533 45 callsubr
        </CharString>
        <CharString name="B">
          -20 475 192 rmoveto
          -84 -56 -52 -101 vhcurveto
          -173 271 164 hlineto
          100 66 -52 -83 hvcurveto
          -19 316 rmoveto
          -74 -53 -50 -95 vhcurveto
          -163 249 163 hlineto
          95 53 -51 -74 hvcurveto
          87 -325 rmoveto
          83 -59 75 -89 15 vhcurveto
          82 22 50 48 80 vvcurveto
          103 -72 81 -147 vhcurveto
          -233 -690 244 hlineto
          137 87 84 99 hvcurveto
          endchar
        </CharString>
        <CharString name="C">
          179 callgsubr
          138 118 63 125 57 vhcurveto
          -85 hlineto
          -81 -43 -84 -47 -101 -67 callsubr
          endchar
        </CharString>
        <CharString name="CR">
          -315 endchar
        </CharString>
        <CharString name="Cacute">
          179 callgsubr
          138 118 63 125 57 vhcurveto
          -85 hlineto
          -81 -43 -84 -47 -101 -67 callsubr
          237 441 -54 callsubr
        </CharString>
        <CharString name="Ccaron">
          179 callgsubr
          138 118 63 125 57 vhcurveto
          -85 hlineto
          -81 -43 -84 -47 -101 -67 callsubr
          350 460 -59 callsubr
        </CharString>
        <CharString name="Ccedilla">
          165 40 345 rmoveto
          -197 142 -141 183 -12 vhcurveto
          -107 55 vlineto
          3 callgsubr
          52 vlineto
          126 8 107 62 53 117 rrcurveto
          -85 hlineto
          -81 -43 -84 -47 -101 -67 callsubr
          endchar
        </CharString>
        <CharString name="D">
          67 callsubr
          endchar
        </CharString>
        <CharString name="Dcaron">
          67 callsubr
          56 751 -59 callsubr
        </CharString>
        <CharString name="Dcroat">
          40 callgsubr
        </CharString>
        <CharString name="E">
          -47 callgsubr
          endchar
        </CharString>
        <CharString name="Eacute">
          -47 callgsubr
          -295 153 -54 callsubr
        </CharString>
        <CharString name="Ecaron">
          -47 callgsubr
          -182 172 -59 callsubr
        </CharString>
        <CharString name="Ecircumflex">
          -47 callgsubr
          -48 175 -34 callgsubr
          endchar
        </CharString>
        <CharString name="Edieresis">
          -47 callgsubr
          -257 131 -106 callgsubr
          150 206 callgsubr
        </CharString>
        <CharString name="Edotaccent">
          -47 callgsubr
          -182 131 rmoveto
          211 callgsubr
        </CharString>
        <CharString name="Egrave">
          -47 callgsubr
          -295 211 -7 callsubr
          endchar
        </CharString>
        <CharString name="Emacron">
          -47 callgsubr
          -352 151 75 callsubr
        </CharString>
        <CharString name="Eogonek">
          -128 426 690 rmoveto
          -351 -690 278 hlineto
          -62 -9 -38 -37 -52 vvcurveto
          44 callsubr
          109 -281 263 251 56 -251 258 281 hlineto
          endchar
        </CharString>
        <CharString name="Eth">
          40 callgsubr
        </CharString>
        <CharString name="Euro">
          180 111 345 rmoveto
          -19 1 -19 3 -18 vhcurveto
          -85 -57 98 hlineto
          -144 45 132 -94 157 hhcurveto
          138 118 63 125 57 hvcurveto
          -85 hlineto
          -81 -43 -84 -47 -101 hhcurveto
          -121 -99 67 111 -40 hvcurveto
          260 57 -275 hlineto
          -3 18 -1 19 19 vvcurveto
          20 2 19 2 18 vhcurveto
          275 57 -260 hlineto
          111 40 99 66 121 hhcurveto
          101 84 -46 -81 43 hvcurveto
          85 hlineto
          125 -57 -118 63 -138 hhcurveto
          -157 -131 -94 -144 -46 hvcurveto
          -98 -57 85 hlineto
          -3 -18 -1 -19 -20 vvcurveto
          endchar
        </CharString>
        <CharString name="F">
          -147 75 hmoveto
          70 319 241 56 -241 258 302 57 -372 hlineto
          endchar
        </CharString>
        <CharString name="G">
          179 callgsubr
          185 146 127 194 19 vhcurveto
          56 -383 -56 310 vlineto
          -161 -15 -105 -100 -157 -67 callsubr
          endchar
        </CharString>
        <CharString name="Gbreve">
          179 callgsubr
          185 146 127 194 19 vhcurveto
          56 -383 -56 310 vlineto
          -161 -15 -105 -100 -157 -67 callsubr
          485 531 13 callsubr
          endchar
        </CharString>
        <CharString name="H">
          45 515 hmoveto
          70 690 -70 -315 -370 315 -70 -690 70 319 370 hlineto
          endchar
        </CharString>
        <CharString name="I">
          200 callgsubr
          endchar
        </CharString>
        <CharString name="Iacute">
          200 callgsubr
          -78 96 -54 callsubr
        </CharString>
        <CharString name="Icircumflex">
          200 callgsubr
          169 118 -34 callgsubr
          endchar
        </CharString>
        <CharString name="Idieresis">
          200 callgsubr
          -40 74 -106 callgsubr
          150 206 callgsubr
        </CharString>
        <CharString name="Idotaccent">
          200 callgsubr
          35 74 rmoveto
          211 callgsubr
        </CharString>
        <CharString name="Igrave">
          200 callgsubr
          -78 154 -7 callsubr
          endchar
        </CharString>
        <CharString name="Imacron">
          200 callgsubr
          -135 94 75 callsubr
        </CharString>
        <CharString name="Iogonek">
          210 callgsubr
          742 -70 -689 251 callsubr
          endchar
        </CharString>
        <CharString name="J">
          -74 352 170 rmoveto
          -59 -29 -58 -83 -83 -28 58 59 -1 vhcurveto
          -72 hlineto
          -106 72 -71 112 111 71 71 106 vhcurveto
          520 -70 vlineto
          endchar
        </CharString>
        <CharString name="K">
          -50 440 hmoveto
          156 callsubr
        </CharString>
        <CharString name="L">
          236 callgsubr
          endchar
        </CharString>
        <CharString name="Lacute">
          236 callgsubr
          -50 96 -54 callsubr
        </CharString>
        <CharString name="Lcaron">
          -199 268 690 -82 callgsubr
          -274 hmoveto
          268 callgsubr
        </CharString>
        <CharString name="Lslash">
          -199 95 690 rmoveto
          -312 vlineto
          -95 -37 rlineto
          -60 vlineto
          95 37 rlineto
          -318 321 54 -251 292 vlineto
          115 45 rlineto
          60 vlineto
          -115 -45 rlineto
          284 vlineto
          endchar
        </CharString>
        <CharString name="M">
          218 75 hmoveto
          70 529 hlineto
          251 -529 rlineto
          41 hlineto
          251 531 rlineto
          -531 70 690 -65 vlineto
          -276 -589 -277 589 rlineto
          -65 hlineto
          endchar
        </CharString>
        <CharString name="N">
          20 callsubr
          endchar
        </CharString>
        <CharString name="NULL">
          -615 endchar
        </CharString>
        <CharString name="Nacute">
          20 callsubr
          -376 96 -54 callsubr
        </CharString>
        <CharString name="Ncaron">
          20 callsubr
          -263 115 -59 callsubr
        </CharString>
        <CharString name="Ntilde">
          20 callsubr
          -401 60 -58 callsubr
          endchar
        </CharString>
        <CharString name="O">
          -93 callgsubr
          endchar
        </CharString>
        <CharString name="OE">
          467 111 345 rmoveto
          178 122 113 158 158 121 -113 -178 -177 -121 -115 -158 -158 -122 115 177 vhcurveto
          910 288 rmoveto
          57 -351 -148 vlineto
          107 -63 -100 48 -116 hhcurveto
          -192 -159 -142 -210 -206 156 -146 195 116 100 48 107 63 hvcurveto
          -148 351 56 -281 263 251 56 -251 258 vlineto
          endchar
        </CharString>
        <CharString name="Oacute">
          -93 callgsubr
          -392 441 -54 callsubr
        </CharString>
        <CharString name="Ocircumflex">
          -93 callgsubr
          -145 463 -34 callgsubr
          endchar
        </CharString>
        <CharString name="Odieresis">
          -93 callgsubr
          -354 419 -106 callgsubr
          150 206 callgsubr
        </CharString>
        <CharString name="Ograve">
          -93 callgsubr
          -392 499 -7 callsubr
          endchar
        </CharString>
        <CharString name="Ohungarumlaut">
          -93 callgsubr
          -167 539 39 callsubr
        </CharString>
        <CharString name="Omacron">
          -93 callgsubr
          -449 439 75 callsubr
        </CharString>
        <CharString name="Oslash">
          166 40 345 rmoveto
          -95 33 -82 55 -61 vhcurveto
          -99 -107 rlineto
          81 hlineto
          62 66 rlineto
          -46 60 76 -27 83 hhcurveto
          196 155 146 206 96 -33 82 -55 61 hvcurveto
          99 106 rlineto
          -81 hlineto
          -61 -66 rlineto
          47 -60 -76 26 -84 hhcurveto
          1 callgsubr
          hvcurveto
          71 hmoveto
          178 122 113 158 68 61 -21 -38 47 vhcurveto
          -394 -423 rlineto
          -39 49 -23 65 77 vvcurveto
          280 -292 rmoveto
          -68 -61 21 38 -47 hvcurveto
          394 423 rlineto
          38 -48 23 -65 -77 vvcurveto
          -177 -121 -115 -158 vhcurveto
          endchar
        </CharString>
        <CharString name="Otilde">
          -93 callgsubr
          -417 405 -58 callsubr
          endchar
        </CharString>
        <CharString name="P">
          -53 145 346 155 callgsubr
          -211 -690 70 289 245 callgsubr
          hvcurveto
          endchar
        </CharString>
        <CharString name="Q">
          167 670 345 rmoveto
          -177 -121 -115 -158 -158 -122 115 177 178 122 113 158 158 121 -113 -178 vhcurveto
          -630 hmoveto
          -206 156 -146 195 38 37 6 10 35 vhcurveto
          156 -144 rlineto
          97 hlineto
          -186 173 rlineto
          104 58 70 111 138 vvcurveto
          207 -155 145 -196 66 callgsubr
          endchar
        </CharString>
        <CharString name="R">
          -12 -48 callsubr
          endchar
        </CharString>
        <CharString name="Racute">
          -12 -48 callsubr
          -97 96 -54 callsubr
        </CharString>
        <CharString name="Rcaron">
          -12 -48 callsubr
          16 115 -59 callsubr
        </CharString>
        <CharString name="S">
          -44 125 508 -53 callgsubr
          endchar
        </CharString>
        <CharString name="Sacute">
          -44 125 508 -53 callgsubr
          48 278 -54 callsubr
        </CharString>
        <CharString name="Scaron">
          -44 125 508 -53 callgsubr
          161 297 -59 callsubr
        </CharString>
        <CharString name="T">
          -86 49 633 179 callsubr
          endchar
        </CharString>
        <CharString name="Tcaron">
          -86 49 633 179 callsubr
          216 115 -59 callsubr
        </CharString>
        <CharString name="Thorn">
          -53 145 202 155 callgsubr
          -141 144 -70 -690 70 145 245 callgsubr
          hvcurveto
          endchar
        </CharString>
        <CharString name="U">
          -72 callgsubr
          endchar
        </CharString>
        <CharString name="Uacute">
          -72 callgsubr
          141 96 -54 callsubr
        </CharString>
        <CharString name="Ucircumflex">
          -72 callgsubr
          388 118 -34 callgsubr
          endchar
        </CharString>
        <CharString name="Udieresis">
          -72 callgsubr
          179 74 -106 callgsubr
          150 206 callgsubr
        </CharString>
        <CharString name="Ugrave">
          -72 callgsubr
          141 154 -7 callsubr
          endchar
        </CharString>
        <CharString name="Uhungarumlaut">
          -72 callgsubr
          366 194 39 callsubr
        </CharString>
        <CharString name="Umacron">
          -72 callgsubr
          84 94 75 callsubr
        </CharString>
        <CharString name="Uogonek">
          43 75 232 rmoveto
          -148 92 -75 121 -14 vhcurveto
          -6 -12 -3 -14 -15 252 callsubr
          26 17 10 54 15 hvcurveto
          72 20 90 59 148 vvcurveto
          458 -70 -458 vlineto
          -128 -75 -53 172 callsubr
          -76 53 128 282 callgsubr
          vlineto
          endchar
        </CharString>
        <CharString name="Uring">
          -72 callgsubr
          154 164 30 callgsubr
        </CharString>
        <CharString name="V">
          53 300 hmoveto
          68 hlineto
          271 690 rlineto
          -74 hlineto
          -232 -611 -230 611 rlineto
          -74 hlineto
          endchar
        </CharString>
        <CharString name="W">
          348 224 -1 rmoveto
          76 1 179 590 165 -590 rlineto
          76 hlineto
          214 690 rlineto
          -73 hlineto
          -178 -608 -164 608 rlineto
          -76 hlineto
          -179 -611 -162 611 rlineto
          -73 hlineto
          endchar
        </CharString>
        <CharString name="X">
          -14 475 hmoveto
          76 hlineto
          -212 345 212 345 rlineto
          -76 hlineto
          -169 -292 -180 292 rlineto
          -76 hlineto
          212 -345 -212 -345 rlineto
          76 hlineto
          169 292 rlineto
          endchar
        </CharString>
        <CharString name="Y">
          63 callsubr
          endchar
        </CharString>
        <CharString name="Yacute">
          63 callsubr
          143 96 -54 callsubr
        </CharString>
        <CharString name="Ydieresis">
          63 callsubr
          181 74 -106 callgsubr
          150 206 callgsubr
        </CharString>
        <CharString name="Z">
          25 callsubr
          endchar
        </CharString>
        <CharString name="Zacute">
          25 callsubr
          -327 153 -54 callsubr
        </CharString>
        <CharString name="Zcaron">
          25 callsubr
          -214 172 -59 callsubr
        </CharString>
        <CharString name="Zdotaccent">
          25 callsubr
          -214 131 rmoveto
          211 callgsubr
        </CharString>
        <CharString name="a">
          -95 callsubr
          endchar
        </CharString>
        <CharString name="aacute">
          -95 callsubr
          -299 369 -54 callsubr
        </CharString>
        <CharString name="abreve">
          -95 callsubr
          -51 459 13 callsubr
          endchar
        </CharString>
        <CharString name="acircumflex">
          -95 callsubr
          -52 391 -34 callgsubr
          endchar
        </CharString>
        <CharString name="acute">
          -390 10 642 -54 callsubr
        </CharString>
        <CharString name="adieresis">
          -95 callsubr
          -261 347 -106 callgsubr
          150 206 callgsubr
        </CharString>
        <CharString name="ae">
          465 783 500 rmoveto
          107 79 -74 -123 hvcurveto
          -387 hlineto
          121 12 89 76 100 hhcurveto
          239 -349 rmoveto
          -75 hlineto
          -59 -22 -54 -46 -88 hhcurveto
          -102 -90 78 124 -9 hvcurveto
          455 hlineto
          3 19 1 18 17 vvcurveto
          141 -99 113 -155 -86 -64 -24 -79 -53 vhcurveto
          93 -70 -93 vlineto
          77 -48 -69 26 -83 hhcurveto
          -160 -114 -108 -170 -170 114 -118 150 93 77 46 61 40 hvcurveto
          -97 70 96 vlineto
          -64 41 71 -42 82 hhcurveto
          135 77 77 84 32 hvcurveto
          -910 127 rmoveto
          138 95 80 107 108 95 -85 -138 -138 -95 -85 -108 -107 -95 90 138 vhcurveto
          endchar
        </CharString>
        <CharString name="agrave">
          -95 callsubr
          -299 427 -7 callsubr
          endchar
        </CharString>
        <CharString name="amacron">
          -95 callsubr
          -356 367 75 callsubr
        </CharString>
        <CharString name="ampersand">
          44 109 191 rmoveto
          80 57 61 72 72 59 -61 -80 -80 -59 -63 -72 -72 -57 63 80 vhcurveto
          47 394 rmoveto
          -58 29 -51 43 -54 vhcurveto
          27 -35 rlineto
          1 -8 -3 0 -6 hhcurveto
          -109 -89 -78 -120 -120 89 -78 109 101 77 70 93 17 hvcurveto
          119 -155 rlineto
          88 hlineto
          -358 464 rlineto
          -42 55 -11 31 35 vvcurveto
          55 40 44 60 60 40 -44 -55 -11 -2 -18 -3 -12 vhcurveto
          73 hlineto
          3 12 2 18 11 vvcurveto
          79 -63 76 -110 -110 -63 -76 -79 vhcurveto
          endchar
        </CharString>
        <CharString name="aogonek">
          47 40 278 rmoveto
          -170 114 -118 150 104 75 59 71 34 vhcurveto
          -120 vlineto
          -64 -8 -39 -37 -53 vvcurveto
          44 callsubr
          599 -70 -119 hlineto
          71 -34 -75 58 -104 hhcurveto
          -150 -114 -108 -170 hvcurveto
          477 -5 rmoveto
          -138 -95 -85 -108 -107 -95 90 138 138 95 80 107 108 95 -85 -138 vhcurveto
          endchar
        </CharString>
        <CharString name="apostrophemod">
          -484 21 768 -82 callgsubr
          endchar
        </CharString>
        <CharString name="approxequal">
          -124 40 226 rmoveto
          40 callsubr
          200 vmoveto
          40 callsubr
          endchar
        </CharString>
        <CharString name="aring">
          -95 callsubr
          -286 437 30 callgsubr
        </CharString>
        <CharString name="asciicircum">
          -4 495 171 rmoveto
          76 hlineto
          -234 519 rlineto
          -63 hlineto
          -234 -519 rlineto
          76 hlineto
          190 428 rlineto
          endchar
        </CharString>
        <CharString name="asciitilde">
          -124 40 262 rmoveto
          40 callsubr
          endchar
        </CharString>
        <CharString name="asterisk">
          -134 275 732 rmoveto
          -73 hlineto
          16 -157 -127 94 -37 -66 147 -57 -147 -57 37 -66 127 94 -16 -157 rlineto
          73 hlineto
          -19 157 125 -92 35 64 -148 57 148 57 -35 64 -125 -92 rlineto
          endchar
        </CharString>
        <CharString name="at">
          510 735 273 rmoveto
          -124 -19 -98 -100 -103 hhcurveto
          -102 -68 100 124 19 hvcurveto
          123 19 98 100 102 hhcurveto
          103 68 -100 -123 -19 hvcurveto
          -444 6 rmoveto
          -170 -25 100 -119 139 hhcurveto
          100 69 56 67 43 hvcurveto
          -51 -9 22 -72 84 hhcurveto
          120 131 156 214 246 -175 171 -264 -336 -230 -262 -316 -289 206 -149 263 -9 hvcurveto
          15 60 rlineto
          -234 9 -177 122 256 vvcurveto
          289 199 229 284 241 135 -145 -212 -183 -94 -128 -77 -30 -16 18 40 6 vhcurveto
          27 171 rlineto
          150 25 -88 128 -152 hhcurveto
          -140 -136 -108 -169 -26 hvcurveto
          endchar
        </CharString>
        <CharString name="atilde">
          -95 callsubr
          -324 333 -58 callsubr
          endchar
        </CharString>
        <CharString name="b">
          47 145 427 rmoveto
          313 -70 -740 70 120 -8 callsubr
        </CharString>
        <CharString name="backslash">
          36 220 940 rmoveto
          -71 hlineto
          325 -1106 rlineto
          70 hlineto
          endchar
        </CharString>
        <CharString name="bar">
          -335 105 790 rmoveto
          -890 70 890 vlineto
          endchar
        </CharString>
        <CharString name="braceleft">
          -59 224 373 rmoveto
          73 15 31 58 66 65 -16 41 87 vvcurveto
          136 48 75 78 29 vhcurveto
          16 -69 vlineto
          -38 -17 -84 -37 -185 -72 17 -55 -69 vvcurveto
          -45 -10 -70 -91 -21 vhcurveto
          -36 vlineto
          91 -23 10 -68 -45 -69 -17 -55 -72 vvcurveto
          -185 84 -37 38 -17 vhcurveto
          69 16 hlineto
          -78 29 -48 75 136 87 16 41 65 vvcurveto
          66 -27 58 -77 15 vhcurveto
          endchar
        </CharString>
        <CharString name="braceright">
          -59 332 371 rmoveto
          -77 -15 -27 -58 -66 -65 16 -41 -87 vvcurveto
          -136 -48 -75 -78 -29 vhcurveto
          -16 69 vlineto
          38 17 84 37 185 72 -17 55 69 vvcurveto
          45 10 68 91 23 vhcurveto
          36 vlineto
          -91 21 -10 70 45 69 17 55 72 vvcurveto
          185 -84 37 -38 17 vhcurveto
          -69 -16 hlineto
          78 -29 48 -75 -136 -87 -16 -41 -65 vvcurveto
          -66 31 -58 73 -15 vhcurveto
          endchar
        </CharString>
        <CharString name="bracketleft">
          -150 170 -166 rmoveto
          136 60 -71 986 71 60 -136 hlineto
          endchar
        </CharString>
        <CharString name="bracketright">
          -150 295 940 rmoveto
          -136 -60 71 -986 -71 -60 136 hlineto
          endchar
        </CharString>
        <CharString name="breve">
          -325 280 732 13 callsubr
          endchar
        </CharString>
        <CharString name="brokenbar">
          -335 105 270 rmoveto
          -370 70 370 vlineto
          150 vmoveto
          370 -70 -370 vlineto
          endchar
        </CharString>
        <CharString name="bullet">
          -184 215 218 rmoveto
          65 51 51 64 65 -51 51 -65 -64 -51 -51 -65 -64 51 -51 64 hvcurveto
          endchar
        </CharString>
        <CharString name="c">
          -15 40 273 rmoveto
          -170 108 -113 155 135 77 74 98 32 vhcurveto
          -20 callgsubr
          endchar
        </CharString>
        <CharString name="cacute">
          -15 40 273 rmoveto
          -170 108 -113 155 135 77 74 98 32 vhcurveto
          -20 callgsubr
          147 369 -54 callsubr
        </CharString>
        <CharString name="caron">
          -327 144 661 -59 callsubr
        </CharString>
        <CharString name="ccaron">
          -15 40 273 rmoveto
          -170 108 -113 155 135 77 74 98 32 vhcurveto
          -20 callgsubr
          260 388 -59 callsubr
        </CharString>
        <CharString name="ccedilla">
          -15 40 273 rmoveto
          -160 95 -109 140 -13 vhcurveto
          -103 55 vlineto
          3 callgsubr
          48 vlineto
          120 8 69 71 30 92 rrcurveto
          -20 callgsubr
          endchar
        </CharString>
        <CharString name="cedilla">
          -362 113 7 rmoveto
          -53 -119 55 hlineto
          3 callgsubr
          endchar
        </CharString>
        <CharString name="cent">
          122 557 161 rmoveto
          -65 hlineto
          -57 -20 -43 -44 -98 hhcurveto
          -114 -77 75 127 127 77 75 114 98 43 -44 -57 20 hvcurveto
          65 hlineto
          -15 78 -66 72 -118 10 rrcurveto
          91 -55 -91 vlineto
          -154 -13 -74 -121 -128 vvcurveto
          -126 74 -121 154 -13 vhcurveto
          -91 55 91 vlineto
          118 10 66 72 15 78 rrcurveto
          endchar
        </CharString>
        <CharString name="circumflex">
          -327 278 664 -34 callgsubr
          endchar
        </CharString>
        <CharString name="colon">
          -318 139 hmoveto
          -107 callgsubr
          434 207 callsubr
        </CharString>
        <CharString name="comma">
          -443 41 56 118 callsubr
        </CharString>
        <CharString name="copyright">
          175 740 344 rmoveto
          -207 -140 -147 -205 -205 -140 147 207 207 140 146 205 205 140 -146 -207 vhcurveto
          -649 hmoveto
          -190 117 -128 187 187 117 128 190 192 -117 125 -187 -187 -117 -125 -192 vhcurveto
          88 1 rmoveto
          -140 98 -93 118 102 72 62 80 27 vhcurveto
          -71 hlineto
          -50 -17 -40 -37 -73 hhcurveto
          -79 -66 54 124 126 66 52 79 63 50 -27 -60 17 hvcurveto
          71 hlineto
          87 -27 -72 55 -102 hhcurveto
          -118 -98 -93 -140 hvcurveto
          endchar
        </CharString>
        <CharString name="currency">
          -89 374 377 rmoveto
          229 callsubr
          53 -202 rmoveto
          39 39 -63 62 rlineto
          18 28 11 34 39 vvcurveto
          40 -10 34 -18 28 vhcurveto
          62 62 -39 39 -61 -61 rlineto
          21 -28 -36 12 -39 hhcurveto
          -39 -36 -12 -21 -28 hvcurveto
          -61 61 -39 -39 63 -62 rlineto
          -19 -27 -10 -35 -40 vvcurveto
          -40 10 -35 17 -27 vhcurveto
          -61 -61 39 -39 59 59 rlineto
          -21 26 34 -11 39 hhcurveto
          41 37 12 23 30 hvcurveto
          endchar
        </CharString>
        <CharString name="d">
          47 40 278 rmoveto
          -170 114 -118 150 104 75 59 71 34 vhcurveto
          -120 70 740 -70 -313 96 callsubr
        </CharString>
        <CharString name="dagger">
          -86 291 538 rmoveto
          218 callgsubr
          -8 -755 rlineto
          69 hlineto
          -8 755 189 -8 rlineto
          57 vlineto
          endchar
        </CharString>
        <CharString name="daggerdbl">
          -84 481 546 rmoveto
          -189 -8 218 callgsubr
          rlineto
          -473 vlineto
          -189 8 rlineto
          -57 vlineto
          189 8 -8 -241 rlineto
          69 hlineto
          -8 241 189 -8 rlineto
          57 vlineto
          -189 -8 rlineto
          473 vlineto
          189 -8 rlineto
          endchar
        </CharString>
        <CharString name="danda">
          -380 270 callsubr
          endchar
        </CharString>
        <CharString name="dcaron">
          124 639 740 -82 callgsubr
          -680 -462 rmoveto
          -170 114 -118 150 104 75 59 71 34 vhcurveto
          -120 70 740 -70 -313 96 callsubr
        </CharString>
        <CharString name="dcroat">
          47 40 278 rmoveto
          -170 114 -118 150 104 75 59 71 34 vhcurveto
          -120 70 590 62 53 -62 97 -70 -97 -87 -53 87 -163 96 callsubr
        </CharString>
        <CharString name="degree">
          -217 30 522 rmoveto
          -106 67 -69 96 96 79 69 106 106 -74 69 -95 -95 -74 -69 -106 vhcurveto
          280 hmoveto
          229 callsubr
          endchar
        </CharString>
        <CharString name="dieresis">
          -347 59 620 -106 callgsubr
          150 206 callgsubr
        </CharString>
        <CharString name="divide">
          120 383 108 -106 callgsubr
          426 vmoveto
          -107 callgsubr
          -255 -194 rmoveto
          269 callgsubr
          endchar
        </CharString>
        <CharString name="dollar">
          40 255 -87 rmoveto
          55 81 hlineto
          137 11 64 95 90 vvcurveto
          135 -102 27 -99 21 vhcurveto
          261 vlineto
          69 -12 36 -47 4 -43 rrcurveto
          79 hlineto
          -14 90 -67 65 -107 9 rrcurveto
          81 -55 -81 vlineto
          -124 -10 -71 -75 -104 vvcurveto
          -135 98 -30 97 -22 vhcurveto
          -266 vlineto
          -82 9 -34 48 -5 52 rrcurveto
          -74 hlineto
          -99 85 -61 110 -9 vhcurveto
          191 192 rmoveto
          -68 -49 -55 -87 -10 vhcurveto
          255 vlineto
          74 -18 62 -24 -80 vvcurveto
          -321 322 rmoveto
          80 55 42 75 6 vhcurveto
          -250 vlineto
          -71 17 -59 26 79 vvcurveto
          endchar
        </CharString>
        <CharString name="dotaccent">
          -497 59 620 rmoveto
          211 callgsubr
        </CharString>
        <CharString name="dotlessi">
          200 callsubr
          endchar
        </CharString>
        <CharString name="dottedcircle">
          36 557 409 -44 callsubr
          -376 -286 -44 callsubr
          98 -76 -44 callsubr
          -143 189 -44 callsubr
          267 -203 -44 callsubr
          -252 324 -44 callsubr
          367 -278 -44 callsubr
          -291 377 -44 callsubr
          364 -281 -44 callsubr
          -247 323 -44 callsubr
          257 -203 -44 callsubr
          -136 188 -44 callsubr
          endchar
        </CharString>
        <CharString name="doubledanda">
          -184 270 callsubr
          131 hmoveto
          -741 65 741 vlineto
          endchar
        </CharString>
        <CharString name="dvA">
          207 256 445 99 callsubr
          140 60 -205 85 callgsubr
        </CharString>
        <CharString name="dvAA">
          472 256 445 -3 callgsubr
        </CharString>
        <CharString name="dvAI">
          40 506 -2 callgsubr
          107 callgsubr
          124 60 -132 52 callsubr
          -531 -60 153 -407 hlineto
          62 callsubr
          vlineto
          endchar
        </CharString>
        <CharString name="dvAU">
          533 783 hmoveto
          680 200 285 callsubr
          vlineto
          229 -120 -57 21 -149 16 callsubr
          110 62 0 -73 65 hvcurveto
          -255 -63 callsubr
          -33 -60 40 hlineto
          -43 callsubr
          hlineto
          endchar
        </CharString>
        <CharString name="dvAbbreviationsign">
          -129 253 409 rmoveto
          -93 -66 -66 -85 -92 65 -69 99 91 66 65 86 95 -59 66 -103 hvcurveto
          1 -56 rmoveto
          67 37 -42 -62 -55 -41 -41 -58 -64 -45 41 63 54 45 42 59 hvcurveto
          endchar
        </CharString>
        <CharString name="dvAcandra">
          207 256 445 99 callsubr
          140 60 -205 -63 callsubr
          583 525 -29 callgsubr
          endchar
        </CharString>
        <CharString name="dvAnusvara">
          -615 -132 841 rmoveto
          211 callgsubr
        </CharString>
        <CharString name="dvAnusvara.amI">
          -615 9 815 rmoveto
          211 callgsubr
        </CharString>
        <CharString name="dvAvagraha">
          -15 271 540 rmoveto
          59 54 13 77 vhcurveto
          145 60 -179 hlineto
          -87 -74 -26 -90 hvcurveto
          -117 195 -191 -79 vvcurveto
          -40 -34 -4 -63 vhcurveto
          -252 -60 253 hlineto
          128 35 25 63 hvcurveto
          116 -198 189 82 vvcurveto
          endchar
        </CharString>
        <CharString name="dvB">
          -187 585 -18 callgsubr
          -625 -60 vlineto
          364 -156 -56 callgsubr
          -262 -185 rmoveto
          -151 113 -94 149 149 113 94 151 228 callgsubr
          -185 rmoveto
          -86 callgsubr
          endchar
        </CharString>
        <CharString name="dvBA">
          58 314 94 18 callgsubr
          -753 -60 548 121 callsubr
          -100 143 hvcurveto
          10 430 rmoveto
          108 76 -77 -108 -34 -8 -31 -13 9 callgsubr
          -33 -46 -19 -52 hhcurveto
          endchar
        </CharString>
        <CharString name="dvBH">
          -93 74 callsubr
          -108 -280 rmoveto
          119 53 75 141 hvcurveto
          64 216 58 -216 93 vlineto
          144 callsubr
          -116 -46 -80 -129 vhcurveto
          32 callgsubr
          -93 258 callsubr
          endchar
        </CharString>
        <CharString name="dvBHA">
          170 74 callsubr
          302 -390 rmoveto
          277 callsubr
          -292 -173 93 vlineto
          -41 callgsubr
          173 -390 vlineto
          endchar
        </CharString>
        <CharString name="dvBH_LA">
          780 74 callsubr
          934 -119 rmoveto
          125 -44 92 -110 19 vhcurveto
          173 272 60 -886 -60 549 26 callgsubr
          -69 -49 -23 -40 -32 hvcurveto
          -177 93 hlineto
          -41 callgsubr
          146 vlineto
          -12 -34 -5 -40 -45 vvcurveto
          -163 103 -103 161 16 vhcurveto
          -102 callgsubr
          64 hlineto
          -12 callsubr
          -77 -102 -119 -62 -81 -137 9 hvcurveto
          202 callsubr
          -16 103 103 163 vvcurveto
          endchar
        </CharString>
        <CharString name="dvBH_NA">
          659 74 callsubr
          791 -390 -39 callgsubr
          -755 -60 550 214 callgsubr
          -65 -51 -14 -25 -36 hvcurveto
          -190 93 hlineto
          -41 callgsubr
          139 vlineto
          -13 -26 -7 -31 -35 vvcurveto
          -99 callsubr
          vhcurveto
          225 -429 hlineto
          -347 428 127 callsubr
        </CharString>
        <CharString name="dvBH_R">
          -93 383 331 -102 callsubr
          -108 -280 rmoveto
          119 53 75 141 hvcurveto
          64 216 58 -216 88 vlineto
          144 callsubr
          -116 -46 -80 -129 vhcurveto
          32 callgsubr
          -88 258 callsubr
          83 -125 rmoveto
          83 hlineto
          222 278 rlineto
          71 vlineto
          endchar
        </CharString>
        <CharString name="dvBH_RA">
          170 383 331 -102 callsubr
          237 -395 rmoveto
          0 callgsubr
          -287 -173 92 callgsubr
          173 -103 vlineto
          -329 -345 rlineto
          83 hlineto
          246 274 rlineto
          endchar
        </CharString>
        <CharString name="dvBH_R_YA">
          602 383 331 -102 callsubr
          459 -281 rmoveto
          -51 callgsubr
          -694 -60 208 -35 vlineto
          -148 -1 -44 -200 vhcurveto
          -123 92 callgsubr
          123 vlineto
          3 -49 10 -44 16 -38 -241 -274 rcurveline
          83 hlineto
          183 229 rlineto
          -67 46 73 -38 99 hhcurveto
          7 60 -78 callsubr
        </CharString>
        <CharString name="dvBH_VA">
          568 74 callsubr
          700 -390 rmoveto
          680 140 60 -689 -60 484 -200 vlineto
          56 -35 -64 39 -92 hhcurveto
          -97 -77 -49 -78 -37 hvcurveto
          -169 93 hlineto
          -41 callgsubr
          151 vlineto
          -3 -16 -2 -17 -18 vvcurveto
          -138 97 -98 137 92 64 39 56 35 vhcurveto
          -198 vlineto
          -181 163 -101 callsubr
          endchar
        </CharString>
        <CharString name="dvBH_YA">
          592 383 328 7 callgsubr
          -116 -46 -80 -129 vhcurveto
          63 hlineto
          91 20 58 78 79 21 -60 -84 vhcurveto
          -91 -78 callgsubr
          113 vlineto
          -171 11 94 186 callsubr
          -203 -93 callsubr
          endchar
        </CharString>
        <CharString name="dvB_BA">
          517 324 524 -56 callgsubr
          449 -430 18 callgsubr
          -1212 -60 1007 65 callsubr
          -98 -83 -47 -77 -41 hvcurveto
          78 -41 -82 46 -104 hhcurveto
          -45 callgsubr
          104 82 46 78 41 hvcurveto
          -77 41 83 -47 98 hhcurveto
          -449 60 rmoveto
          -86 callgsubr
          459 hmoveto
          -49 callgsubr
          endchar
        </CharString>
        <CharString name="dvB_BHA">
          591 324 524 -82 callsubr
          371 15 132 callgsubr
          367 rmoveto
          -30 callgsubr
          -93 -55 vlineto
          -79 -58 -13 -29 -38 hvcurveto
          111 -28 -97 67 -125 hhcurveto
          -45 callgsubr
          93 78 37 64 45 hvcurveto
          -52 30 58 -33 68 hhcurveto
          119 53 75 141 hvcurveto
          149 callgsubr
          -699 -60 615 247 callsubr
          endchar
        </CharString>
        <CharString name="dvB_BH_RA">
          591 324 524 -82 callsubr
          371 20 132 callgsubr
          362 rmoveto
          -30 callgsubr
          -88 -55 vlineto
          -79 -59 -14 -28 -38 hvcurveto
          108 -29 -96 65 -124 hhcurveto
          -45 callgsubr
          94 79 38 66 44 hvcurveto
          -51 31 57 -32 67 hhcurveto
          119 53 75 141 hvcurveto
          64 173 -105 vlineto
          -262 -300 rlineto
          83 hlineto
          179 224 rlineto
          -214 0 callgsubr
          -287 -173 88 141 callsubr
          -699 -60 615 247 callsubr
          endchar
        </CharString>
        <CharString name="dvB_DA">
          435 324 524 -82 callsubr
          648 -146 -87 callsubr
          -1130 -60 907 250 callsubr
          -123 -98 -31 -78 -48 hvcurveto
          79 -42 -84 45 -104 hhcurveto
          -45 callgsubr
          101 83 43 76 43 hvcurveto
          -68 39 76 -41 97 hhcurveto
          180 callgsubr
        </CharString>
        <CharString name="dvB_DHA">
          510 324 154 rmoveto
          -86 callgsubr
          458 414 159 callgsubr
          -660 -60 582 hlineto
          59 callsubr
          -58 -21 -39 -41 -6 -60 -4 -24 -7 -22 -11 -19 108 callgsubr
          79 38 68 45 hvcurveto
          -60 39 78 -30 81 hhcurveto
          95 83 35 63 41 hvcurveto
          -61 callgsubr
        </CharString>
        <CharString name="dvB_DH_VA">
          903 1418 268 callsubr
          -645 -60 440 -200 hlineto
          -26 callsubr
          -659 -60 581 hlineto
          59 callsubr
          -62 -22 -39 -44 -3 -66 -4 -20 -7 -18 -9 -17 108 callgsubr
          78 38 67 45 hvcurveto
          -61 40 83 -28 85 hhcurveto
          101 72 34 70 37 hvcurveto
          128 callsubr
          65 vlineto
          -246 163 -101 callsubr
          -848 -9 rmoveto
          -86 callgsubr
          endchar
        </CharString>
        <CharString name="dvB_JA">
          651 1101 460 -29 callsubr
        </CharString>
        <CharString name="dvB_JHA">
          601 342 198 rmoveto
          -109 -69 62 105 39 9 33 18 26 hvcurveto
          270 -218 rlineto
          -30 -27 -39 -17 -53 hhcurveto
          352 122 rmoveto
          -67 -54 24 76 79 68 2 75 hvcurveto
          208 callsubr
          171 -360 hlineto
          205 360 rmoveto
          60 -1296 -60 855 215 callgsubr
          -104 -103 -17 -124 -8 0 -7 1 -7 hvcurveto
          -40 -6 -37 -14 -31 vhcurveto
          -262 212 rlineto
          25 33 45 13 54 hhcurveto
          30 43 -6 -9 29 hvcurveto
          59 vlineto
          10 -30 -48 5 -32 hhcurveto
          -173 -79 -106 -128 -140 99 -88 145 114 73 66 100 27 hvcurveto
          -29 37 57 -9 65 hhcurveto
          78 60 -15 -90 -63 -30 -48 -86 -80 -56 34 65 -13 hvcurveto
          -67 -221 65 127 hlineto
          -39 33 48 -24 76 hhcurveto
          127 48 80 78 46 -22 49 -36 23 hvcurveto
          190 -267 65 680 hlineto
          endchar
        </CharString>
        <CharString name="dvB_J_YA">
          1029 1544 144 callgsubr
          -1724 -60 1238 -5 119 callsubr
          -216 -100 hlineto
          -133 0 -105 -124 -105 -16 79 102 -3 vhcurveto
          151 vlineto
          47 -34 -69 47 -104 hhcurveto
          -149 -115 -89 -158 -151 113 -94 149 82 62 26 45 45 hvcurveto
          -40 28 45 -25 71 hhcurveto
          167 22 131 145 hvcurveto
          64 56 callsubr
          -1155 287 callsubr
          10 37 19 29 hvcurveto
          305 -249 rlineto
          -28 -31 -45 -16 -61 hhcurveto
          952 30 15 callsubr
          -951 343 rmoveto
          67 48 -24 -32 29 hvcurveto
          -130 vlineto
          1 -31 2 -29 6 -28 -287 233 rcurveline
          26 34 45 15 55 hhcurveto
          endchar
        </CharString>
        <CharString name="dvB_JxA">
          651 721 -65 -106 callgsubr
          380 525 -29 callsubr
        </CharString>
        <CharString name="dvB_LA">
          722 324 524 -82 callsubr
          597 77 -97 callgsubr
          -1417 -60 1080 -170 vlineto
          -76 -7 -55 -44 -20 -74 rrcurveto
          38 callsubr
          endchar
        </CharString>
        <CharString name="dvB_L_YA">
          1176 1423 -93 callsubr
          -1099 -20 rmoveto
          -86 callgsubr
          370 vmoveto
          -80 callgsubr
          1367 -524 -39 callgsubr
          -1871 -60 1385 224 callsubr
          -153 -8 vhcurveto
          37 -23 -47 26 -65 hhcurveto
          -92 -55 -55 -74 -20 hvcurveto
          38 callsubr
          64 148 callsubr
          29 97 111 hhcurveto
          45 34 -17 -28 8 hvcurveto
          -181 5 95 -114 172 21 callsubr
        </CharString>
        <CharString name="dvB_NA">
          613 716 428 -103 callsubr
          -392 96 -82 callsubr
          739 -154 rmoveto
          -100 callsubr
          -1308 -60 1103 248 callgsubr
          -79 -57 -20 -36 -37 hvcurveto
          96 -36 -94 57 -116 hhcurveto
          -45 callgsubr
          95 81 39 67 46 hvcurveto
          -57 34 65 -33 76 153 callgsubr
        </CharString>
        <CharString name="dvB_R">
          -187 585 -18 callgsubr
          -625 -60 vlineto
          102 -341 rmoveto
          -151 113 -91 149 18 18 1 3 17 vhcurveto
          -162 -155 281 callsubr
          215 223 rlineto
          46 43 27 60 71 vvcurveto
          228 callgsubr
          185 -82 callsubr
          endchar
        </CharString>
        <CharString name="dvB_RA">
          58 314 98 160 callsubr
          -753 -60 548 121 callsubr
          -96 143 hvcurveto
          10 426 rmoveto
          105 79 -74 -111 -34 -7 -31 -14 9 callgsubr
          -32 -46 -19 -53 hhcurveto
          endchar
        </CharString>
        <CharString name="dvB_SA">
          610 324 524 -82 callsubr
          528 511 -37 callsubr
          413 15 rmoveto
          60 -1305 -60 828 286 callgsubr
          100 -34 -94 60 -119 hhcurveto
          -45 callgsubr
          82 70 28 51 47 hvcurveto
          -103 12 60 -71 112 131 callgsubr
        </CharString>
        <CharString name="dvB_SHA">
          568 645 -2 callgsubr
          8 18 22 2 21 238 callsubr
          -11 hhcurveto
          116 -26 -100 70 -128 hhcurveto
          -45 callgsubr
          81 70 28 50 47 hvcurveto
          -113 9 67 -60 109 hhcurveto
          146 37 101 120 3 hvcurveto
          130 callgsubr
          -26 -24 -3 -7 -21 hvcurveto
          -674 -60 hlineto
          1263 hmoveto
          244 callsubr
          -759 -526 rmoveto
          -86 callgsubr
          370 vmoveto
          -80 callgsubr
          endchar
        </CharString>
        <CharString name="dvB_TA">
          502 324 154 rmoveto
          -86 callgsubr
          370 vmoveto
          -80 callgsubr
          465 -468 rmoveto
          -76 callsubr
          151 -439 -100 callsubr
          -1197 -60 992 262 callsubr
          hlineto
          -98 -82 -25 -56 -50 hvcurveto
          104 -32 -94 62 -121 hhcurveto
          -45 callgsubr
          83 70 29 51 46 hvcurveto
          -104 24 79 -72 155 hhcurveto
          8 hlineto
          endchar
        </CharString>
        <CharString name="dvB_VA">
          496 765 163 -101 callsubr
          -441 -9 rmoveto
          -86 callgsubr
          370 vmoveto
          -80 callgsubr
          827 216 rmoveto
          -1191 -60 986 98 callsubr
          -91 -73 -43 -69 -39 hvcurveto
          77 -42 -84 44 -102 hhcurveto
          -45 callgsubr
          102 84 44 77 42 hvcurveto
          -69 39 73 -43 91 42 callsubr
        </CharString>
        <CharString name="dvB_YA">
          549 796 -93 callsubr
          -472 350 -82 callsubr
          740 -154 -39 callgsubr
          -1244 -60 758 224 callgsubr
          -158 -7 vhcurveto
          84 -40 -87 49 -108 hhcurveto
          -45 callgsubr
          110 89 51 88 39 hvcurveto
          231 callgsubr
        </CharString>
        <CharString name="dvC">
          123 callgsubr
          154 81 104 141 vhcurveto
          196 callgsubr
        </CharString>
        <CharString name="dvCA">
          105 555 hmoveto
          -100 callsubr
          -800 -60 595 -335 hlineto
          71 callsubr
          -362 -57 180 hlineto
          -53 -31 -33 -56 -75 187 callsubr
          endchar
        </CharString>
        <CharString name="dvCH">
          62 callgsubr
          -160 159 -58 169 217 140 120 195 50 callgsubr
        </CharString>
        <CharString name="dvCHA">
          62 callgsubr
          -160 159 -58 169 217 140 120 195 118 -50 83 -84 21 vhcurveto
          -73 callgsubr
          endchar
        </CharString>
        <CharString name="dvCH_R">
          62 callgsubr
          -153 146 -60 161 -5 vhcurveto
          -147 -157 rlineto
          81 hlineto
          134 159 263 callsubr
          156 33 96 110 161 vvcurveto
          50 callgsubr
        </CharString>
        <CharString name="dvCH_RA">
          62 callgsubr
          -151 141 -60 157 -6 vhcurveto
          -147 -158 rlineto
          134 callgsubr
          -149 166 rlineto
          160 31 99 111 164 vvcurveto
          118 -50 83 -84 21 vhcurveto
          -73 callgsubr
          endchar
        </CharString>
        <CharString name="dvCH_R_YA">
          736 588 514 rmoveto
          -75 callgsubr
          737 224 callsubr
          -154 -8 vhcurveto
          77 -26 -56 46 -80 hhcurveto
          -122 -3 -59 -85 2 -176 34 callgsubr
          395 -340 -107 callsubr
          -408 -300 rmoveto
          81 hlineto
          -150 167 120 23 86 68 36 102 rlinecurve
          -76 44 77 -44 107 -40 callgsubr
          -1431 122 callgsubr
          -151 141 -60 158 -6 vhcurveto
          -148 -159 rlineto
          225 callgsubr
          rlineto
          endchar
        </CharString>
        <CharString name="dvCH_YA">
          736 588 514 rmoveto
          -75 callgsubr
          737 224 callsubr
          -154 -8 vhcurveto
          77 -26 -56 46 -80 hhcurveto
          -122 -3 -59 -85 2 -176 34 callgsubr
          395 -340 -90 callsubr
          -1431 122 callgsubr
          -160 159 -58 169 171 123 75 127 45 vhcurveto
          -76 44 77 -44 107 21 callsubr
        </CharString>
        <CharString name="dvC_CA">
          488 371 164 rmoveto
          -101 -62 54 97 101 72 58 108 hvcurveto
          224 hlineto
          -53 -31 -33 -55 -76 vvcurveto
          -83 -9 -43 -65 -103 hhcurveto
          567 -164 rmoveto
          -100 callsubr
          -1183 -60 978 -335 hlineto
          71 callsubr
          -746 -57 185 hlineto
          -54 -29 -35 -54 -76 vvcurveto
          -131 97 -80 131 91 59 42 62 32 vhcurveto
          -64 38 75 -40 86 hhcurveto
          102 56 48 47 27 hvcurveto
          endchar
        </CharString>
        <CharString name="dvC_CHA">
          651 1306 -18 callgsubr
          -1346 -60 592 31 callsubr
          -62 -23 -45 -46 -10 -67 rrcurveto
          -74 -18 -48 -42 -88 hhcurveto
          -102 -68 54 97 101 69 58 108 hvcurveto
          26 57 -362 113 callsubr
          104 -80 131 75 54 24 47 36 vhcurveto
          -104 42 133 -39 139 hhcurveto
          165 callsubr
          118 -50 83 -84 21 hvcurveto
          -73 callgsubr
          endchar
        </CharString>
        <CharString name="dvC_CH_VA">
          637 840 -240 rmoveto
          -74 -81 43 103 86 60 53 84 7 hvcurveto
          5 5 0 5 hhcurveto
          57 51 8 16 45 hvcurveto
          -125 vlineto
          -108 1 -54 -83 -104 hhcurveto
          4 352 rmoveto
          -129 -135 34 123 93 71 44 104 hvcurveto
          12 60 -12 hlineto
          -130 -22 51 131 hvcurveto
          32 394 -88 vlineto
          -104 -14 -51 -85 2 -163 34 callgsubr
          66 52 -42 -118 -183 -126 -79 -171 hvcurveto
          448 568 rmoveto
          60 -1332 -60 578 -26 vlineto
          -118 15 -69 82 -25 vhcurveto
          -6 vlineto
          -66 -24 -47 -51 -5 -75 rrcurveto
          -71 -14 -38 -53 -93 hhcurveto
          -104 -59 55 97 101 68 59 108 hvcurveto
          26 57 -362 -57 182 hlineto
          -51 -31 -35 -57 -72 vvcurveto
          -138 94 -74 130 80 52 33 51 33 vhcurveto
          31 -64 66 -38 81 -18 rrcurveto
          -55 -30 -37 -53 -80 vvcurveto
          -128 106 -75 110 77 53 32 46 31 vhcurveto
          -130 65 458 vlineto
          88 53 51 90 118 vvcurveto
          120 -51 84 -88 19 vhcurveto
          90 vlineto
          endchar
        </CharString>
        <CharString name="dvC_MA">
          609 1059 451 -25 callsubr
          -1304 -60 837 256 callgsubr
          -153 -75 -51 -110 -3 hvcurveto
          -79 -14 -43 -48 -87 hhcurveto
          -97 -62 51 97 101 69 62 108 hvcurveto
          46 57 -382 -57 185 hlineto
          -55 -30 -35 -58 -75 vvcurveto
          -128 95 -80 125 82 57 35 58 31 vhcurveto
          -51 30 58 -32 67 hhcurveto
          -70 callgsubr
          endchar
        </CharString>
        <CharString name="dvC_NA">
          626 1076 hmoveto
          -100 callsubr
          -1320 -60 1115 248 callgsubr
          -149 -72 -72 -112 -2 hvcurveto
          -82 -11 -45 -57 -103 hhcurveto
          -102 -63 54 97 101 69 58 108 hvcurveto
          36 57 -372 113 callsubr
          98 -80 131 91 60 36 60 34 vhcurveto
          -57 34 65 -33 76 hhcurveto
          -6 callsubr
          -71 callgsubr
          endchar
        </CharString>
        <CharString name="dvC_R">
          123 callgsubr
          11 10 1 1 10 vhcurveto
          -147 -136 rlineto
          -5 83 vlineto
          203 203 rlineto
          0 vlineto
          43 44 22 63 74 vvcurveto
          196 callgsubr
        </CharString>
        <CharString name="dvC_RA">
          105 -40 740 rmoveto
          -60 595 -335 vlineto
          71 callsubr
          -362 -57 180 hlineto
          -53 -31 -33 -56 -75 vvcurveto
          -124 100 -81 127 15 13 1 3 13 vhcurveto
          -148 -154 rlineto
          83 hlineto
          209 243 rlineto
          -200 -100 callsubr
          vlineto
          endchar
        </CharString>
        <CharString name="dvC_YA">
          586 1099 268 callsubr
          -1279 -60 793 -35 hlineto
          189 callgsubr
          -39 2 -35 6 -33 rrcurveto
          -103 -2 -41 -76 -119 hhcurveto
          -102 -63 54 97 101 69 58 108 hvcurveto
          36 57 -372 113 callsubr
          98 -80 131 107 64 50 79 29 vhcurveto
          -76 45 77 -43 106 169 callgsubr
          -268 -93 callsubr
          endchar
        </CharString>
        <CharString name="dvCandrabindu">
          -615 48 987 -29 callgsubr
          -180 -19 rmoveto
          211 callgsubr
        </CharString>
        <CharString name="dvD">
          6 callsubr
          98 -90 144 99 callgsubr
          182 -222 -45 callsubr
          endchar
        </CharString>
        <CharString name="dvDA">
          6 callsubr
          98 -90 144 180 callgsubr
        </CharString>
        <CharString name="dvDA_mvR">
          -38 523 217 rmoveto
          -62 hlineto
          -98 -53 -50 -111 -94 -68 28 75 81 84 14 260 callsubr
          19 77 81 76 7 85 hvcurveto
          127 170 193 60 -657 -60 399 -110 -83 hlineto
          -110 -96 -37 -109 -61 41 -48 57 -13 hvcurveto
          -6 vlineto
          -55 -11 -43 -50 -63 vvcurveto
          -103 88 -58 139 121 107 51 155 -2 vhcurveto
          endchar
        </CharString>
        <CharString name="dvDD">
          -29 462 -235 -45 callsubr
          240 915 rmoveto
          60 -666 -60 444 -119 -100 vlineto
          -104 -103 -30 -121 -121 93 -31 125 -83 callgsubr
          endchar
        </CharString>
        <CharString name="dvDDA">
          -29 626 -18 callgsubr
          -666 -60 444 -119 -100 vlineto
          -104 -103 -30 -121 -121 93 -31 125 -83 callgsubr
          endchar
        </CharString>
        <CharString name="dvDDH">
          18 405 517 rmoveto
          0 65 163 203 60 -713 -60 445 -103 vlineto
          -176 2 -151 -88 -203 -60 callgsubr
          106 73 156 -1 vhcurveto
          131 -732 -45 callsubr
          endchar
        </CharString>
        <CharString name="dvDDHA">
          18 405 517 rmoveto
          0 65 163 203 60 -713 -60 445 -103 vlineto
          -176 2 -151 -88 -203 -60 callgsubr
          106 73 156 -1 vhcurveto
          endchar
        </CharString>
        <CharString name="dvDDH_DDHA">
          21 676 680 217 callgsubr
          -103 54 -69 82 -35 vhcurveto
          -78 -30 -58 -70 -102 93 callgsubr
          94 61 119 -2 hvcurveto
          0 vlineto
          2 1 0 2 hhcurveto
          128 96 66 114 94 -71 62 -94 -105 -65 -73 -104 2 hvcurveto
          127 callgsubr
        </CharString>
        <CharString name="dvDDH_R">
          18 533 -286 -45 callsubr
          -52 803 -1 callgsubr
        </CharString>
        <CharString name="dvDDH_RA">
          18 405 517 -1 callgsubr
        </CharString>
        <CharString name="dvDDH_VA">
          21 289 -127 rmoveto
          -74 -51 45 74 80 69 40 75 3 hvcurveto
          -1 13 14 -1 14 hhcurveto
          26 24 3 5 23 hvcurveto
          -96 vlineto
          -96 -1 -36 -56 -96 hhcurveto
          387 807 217 callgsubr
          -104 55 -68 82 -35 vhcurveto
          -63 -24 -41 -47 -77 255 callsubr
          393 vlineto
          53 30 33 50 67 vvcurveto
          94 -71 62 -94 -105 -65 -73 -104 2 vhcurveto
          127 callgsubr
        </CharString>
        <CharString name="dvDDH_YA">
          575 865 145 71 callgsubr
          -120 16 -149 vhcurveto
          -111 103 555 -320 hlineto
          -125 -48 -90 -112 vhcurveto
          225 -145 -39 callgsubr
          -1270 -60 445 -103 -13 vlineto
          -159 -2 -155 -81 -206 -60 callgsubr
          107 69 143 3 vhcurveto
          186 hlineto
          134 72 -7 -68 -59 -51 -12 -90 2 hvcurveto
          -171 -14 68 -117 159 hhcurveto
          82 57 35 55 29 hvcurveto
          -175 vlineto
          endchar
        </CharString>
        <CharString name="dvDDHxA">
          18 405 517 rmoveto
          0 65 163 203 60 -713 -60 445 -103 vlineto
          -176 2 -151 -88 -203 -60 callgsubr
          106 73 156 -1 vhcurveto
          -21 -664 rmoveto
          211 callgsubr
        </CharString>
        <CharString name="dvDD_DDA">
          -46 609 -18 callgsubr
          -649 -60 444 -89 -92 vlineto
          -103 -102 -19 -111 138 callsubr
          hvcurveto
          -64 hlineto
          9 -64 30 -46 47 -28 rrcurveto
          -42 -18 -30 -32 -55 vvcurveto
          138 callsubr
          vhcurveto
          -64 hlineto
          -115 16 85 -58 130 hhcurveto
          127 69 60 89 114 -95 22 -109 -89 -55 11 64 70 81 1 69 131 callsubr
        </CharString>
        <CharString name="dvDD_DDHA">
          -53 602 -18 callgsubr
          -642 -60 437 -89 -92 vlineto
          -103 -102 -19 -111 138 callsubr
          hvcurveto
          -64 hlineto
          9 -68 34 -47 52 -28 rrcurveto
          -78 -34 -60 -69 -108 93 callgsubr
          88 57 119 8 131 callsubr
        </CharString>
        <CharString name="dvDD_R">
          -29 479 -303 -45 callsubr
          223 983 5 callgsubr
        </CharString>
        <CharString name="dvDD_RA">
          -29 626 680 5 callgsubr
        </CharString>
        <CharString name="dvDD_VA">
          -14 641 -18 callgsubr
          -681 -60 450 -89 -100 vlineto
          -103 -94 -19 -111 -104 79 -30 120 84 64 -5 -73 -69 -56 -21 -77 -109 -44 41 73 -11 hvcurveto
          -64 hlineto
          10 -72 34 -49 57 -27 rrcurveto
          -61 -24 -40 -47 -76 255 callsubr
          411 vlineto
          25 25 13 33 41 vvcurveto
          119 -100 17 -109 -90 -48 11 64 70 71 1 62 vhcurveto
          164 149 hlineto
          -186 -821 rmoveto
          -74 -51 45 74 79 67 40 74 4 hvcurveto
          -1 8 8 0 9 hhcurveto
          35 31 4 9 26 hvcurveto
          -102 vlineto
          -96 -1 -36 -56 -96 hhcurveto
          endchar
        </CharString>
        <CharString name="dvDD_YA">
          516 966 -2 callgsubr
          -336 vlineto
          -125 -48 -90 -112 -111 -53 70 107 6 vhcurveto
          61 7 82 19 96 vvcurveto
          117 -120 16 -149 vhcurveto
          -22 -17 0 -14 hhcurveto
          119 vlineto
          -145 -690 rmoveto
          127 78 73 93 142 -116 18 -112 -79 -60 13 81 78 68 13 75 hvcurveto
          215 hlineto
          134 72 -7 -68 -59 -51 -10 -77 hvcurveto
          -13 hlineto
          -171 -14 68 -117 159 hhcurveto
          82 57 35 55 29 hvcurveto
          -159 -100 callsubr
          -1211 -28 callsubr
          -136 2 95 -76 145 hhcurveto
          endchar
        </CharString>
        <CharString name="dvDDxA">
          -29 626 -18 callgsubr
          -666 -60 444 -119 -100 vlineto
          -104 -103 -30 -121 -121 93 -31 125 -83 callgsubr
          -139 -842 rmoveto
          211 callgsubr
        </CharString>
        <CharString name="dvDH">
          -198 361 568 rmoveto
          48 callgsubr
          153 104 79 161 vhcurveto
          120 callsubr
        </CharString>
        <CharString name="dvDHA">
          99 371 265 callsubr
          -100 -66 -69 -95 122 callsubr
          hvcurveto
          188 callsubr
          -117 109 -60 114 95 83 35 63 41 vhcurveto
          -61 callgsubr
        </CharString>
        <CharString name="dvDH_MA">
          556 1006 182 callsubr
          -262 -351 rmoveto
          -98 -21 -59 -88 -65 -45 45 64 91 63 21 94 vhcurveto
          62 hlineto
          467 287 rmoveto
          60 -722 -60 255 256 callgsubr
          -156 -73 -53 -115 hvcurveto
          -2 vlineto
          -68 -9 -54 -43 -87 hhcurveto
          -81 -67 -52 callgsubr
          -100 -66 -69 -95 122 callsubr
          hvcurveto
          97 callsubr
          99 -55 114 78 64 29 54 33 vhcurveto
          -50 30 56 -30 65 hhcurveto
          119 53 75 141 hvcurveto
          18 callsubr
          endchar
        </CharString>
        <CharString name="dvDH_NA">
          553 1068 268 callsubr
          -735 -60 530 -193 -320 2 callgsubr
          225 -429 65 hlineto
          -412 428 127 callsubr
        </CharString>
        <CharString name="dvDH_N_YA">
          957 656 428 -103 callsubr
          550 -16 callsubr
          266 496 rmoveto
          140 60 -1124 -60 638 -16 hlineto
          -167 -1 -10 -200 vhcurveto
          -242 2 callgsubr
          147 53 callgsubr
          65 vlineto
          endchar
        </CharString>
        <CharString name="dvDH_R">
          -198 361 568 rmoveto
          48 callgsubr
          22 21 2 3 20 vhcurveto
          -145 -137 rlineto
          -6 83 vlineto
          190 203 rlineto
          42 40 24 58 77 vvcurveto
          120 callsubr
        </CharString>
        <CharString name="dvDH_RA">
          99 371 265 callsubr
          -100 -66 -69 -95 122 callsubr
          hvcurveto
          188 callsubr
          -117 109 -56 116 22 20 2 5 20 vhcurveto
          -176 -177 rlineto
          83 hlineto
          248 264 rlineto
          -61 callgsubr
        </CharString>
        <CharString name="dvDH_VA">
          483 998 268 callsubr
          -645 -60 440 -200 hlineto
          -10 callgsubr
          -100 -66 -69 -95 122 callsubr
          hvcurveto
          97 callsubr
          114 -55 119 101 72 34 70 37 vhcurveto
          128 callsubr
          65 vlineto
          -246 163 -101 callsubr
          endchar
        </CharString>
        <CharString name="dvDH_YA">
          536 1051 268 callsubr
          -688 -60 202 -35 hlineto
          189 callgsubr
          -36 2 -34 5 -31 rrcurveto
          -130 -66 -49 -113 -81 -87 32 84 85 78 27 85 vhcurveto
          48 59 -48 hlineto
          -96 -69 40 91 63 39 39 63 73 28 -51 -71 -2 hvcurveto
          48 callgsubr
          109 76 40 82 34 vhcurveto
          -75 185 callsubr
          65 vlineto
          -268 -93 callsubr
          endchar
        </CharString>
        <CharString name="dvD_BA">
          54 callgsubr
          176 60 -659 155 callsubr
          68 43 28 39 26 vhcurveto
          -104 165 callgsubr
        </CharString>
        <CharString name="dvD_BHA">
          700 514 8 -87 callsubr
          -672 234 callsubr
          98 -90 144 99 callgsubr
          182 -222 -45 callsubr
          358 540 -102 callsubr
          302 -390 rmoveto
          277 callsubr
          -292 -173 93 vlineto
          -41 callgsubr
          173 -390 vlineto
          endchar
        </CharString>
        <CharString name="dvD_B_RA">
          54 callgsubr
          177 60 -660 155 callsubr
          vhcurveto
          3 4 0 3 hhcurveto
          -102 -103 rlineto
          80 hlineto
          149 167 rlineto
          -101 165 callgsubr
        </CharString>
        <CharString name="dvD_DA">
          -67 422 84 rmoveto
          -132 65 276 -65 vlineto
          -105 -52 -47 -101 -89 -59 30 73 81 84 18 260 callsubr
          21 77 81 69 11 81 hvcurveto
          148 153 169 60 -629 -60 395 -93 -83 hlineto
          -118 -98 -33 -114 -61 43 -52 55 -14 hvcurveto
          -6 vlineto
          -59 -17 -39 -48 -63 vvcurveto
          -101 82 -60 131 59 72 23 43 22 vhcurveto
          endchar
        </CharString>
        <CharString name="dvD_DHA">
          215 764 8 rmoveto
          294 -59 vlineto
          -105 -68 -33 -76 -110 -72 53 114 148 105 30 143 vhcurveto
          97 171 146 60 -910 -60 699 211 callsubr
          -100 52 -75 84 -33 hvcurveto
          230 callsubr
          -8 hlineto
          -73 -48 35 71 87 67 29 75 hvcurveto
          60 vlineto
          -124 -83 -66 -108 -70 38 -49 54 -18 hvcurveto
          -6 vlineto
          -49 -16 -45 -47 -70 vvcurveto
          -112 94 -63 124 119 71 58 86 29 vhcurveto
          -2 16 15 -1 17 hhcurveto
          180 callgsubr
        </CharString>
        <CharString name="dvD_GA">
          12 callsubr
          -347 vlineto
          endchar
        </CharString>
        <CharString name="dvD_GHA">
          227 764 8 -87 callsubr
          -922 -60 699 250 callsubr
          -68 -60 -10 -21 -49 hvcurveto
          29 -37 -52 21 -70 hhcurveto
          -124 -83 -66 -108 -70 38 -49 54 -18 hvcurveto
          -6 vlineto
          -49 -16 -45 -47 -70 vvcurveto
          -112 94 -63 124 119 71 58 86 29 vhcurveto
          -2 16 15 -1 17 hhcurveto
          99 callgsubr
          -441 298 rmoveto
          -73 -48 35 71 87 67 29 75 48 32 -10 -15 24 hvcurveto
          -44 -38 -26 -56 -78 vvcurveto
          -100 52 -75 84 -33 vhcurveto
          230 callsubr
          hlineto
          endchar
        </CharString>
        <CharString name="dvD_G_RA">
          12 callsubr
          -155 vlineto
          -203 -234 rlineto
          83 hlineto
          120 154 rlineto
          -112 vlineto
          endchar
        </CharString>
        <CharString name="dvD_MA">
          176 458 324 rmoveto
          -172 hlineto
          -83 -68 17 92 109 88 7 109 hvcurveto
          98 131 196 -495 -168 hlineto
          233 -371 rmoveto
          866 140 60 -871 -60 405 -71 -33 vlineto
          -162 -101 -40 -136 -121 93 -48 118 hvcurveto
          110 -79 -50 hlineto
          -147 -43 -67 -83 -94 71 -55 87 109 41 71 122 hvcurveto
          48 168 -313 vlineto
          -232 265 rmoveto
          -72 -9 -62 -77 -50 -44 28 61 70 41 23 78 vhcurveto
          61 hlineto
          endchar
        </CharString>
        <CharString name="dvD_NA">
          683 631 -214 -45 callsubr
          578 214 rmoveto
          -100 callsubr
          -1378 234 callsubr
          98 -90 144 62 57 22 36 25 hvcurveto
          -154 65 294 -59 vlineto
          -105 -68 -33 -76 -110 -72 53 114 148 105 30 143 vhcurveto
          97 171 659 -193 -320 -100 callgsubr
          -71 callgsubr
          endchar
        </CharString>
        <CharString name="dvD_R">
          6 callsubr
          96 -87 146 10 9 1 1 10 hvcurveto
          112 callgsubr
          181 -214 -45 callsubr
          endchar
        </CharString>
        <CharString name="dvD_RA">
          6 callsubr
          96 -87 146 10 9 1 1 10 hvcurveto
          112 callgsubr
          endchar
        </CharString>
        <CharString name="dvD_VA">
          -12 311 -12 58 callsubr
          -683 113 callgsubr
          -84 48 -58 69 -27 hvcurveto
          192 callsubr
        </CharString>
        <CharString name="dvD_YA">
          69 370 527 rmoveto
          153 149 -348 vlineto
          -146 -63 -84 -160 -94 -81 25 75 78 84 12 260 callsubr
          15 77 81 76 3 85 hvcurveto
          301 -527 -39 callgsubr
          -764 -60 345 -93 -43 vlineto
          -110 -96 -33 -109 -61 41 -44 57 -13 hvcurveto
          -6 vlineto
          -55 -11 -43 -45 -63 vvcurveto
          -103 104 -55 126 113 77 36 72 43 vhcurveto
          -152 vlineto
          endchar
        </CharString>
        <CharString name="dvE">
          40 695 -18 callgsubr
          -735 -60 153 -407 vlineto
          62 callsubr
          328 107 callgsubr
          vlineto
          endchar
        </CharString>
        <CharString name="dvEcandra">
          0 162 1000 rmoveto
          -60 hlineto
          -98 59 -80 141 141 59 80 98 vhcurveto
          -60 hlineto
          -66 -35 -57 -105 -100 -40 57 66 vhcurveto
          496 -320 rmoveto
          60 -735 -60 153 -407 vlineto
          62 callsubr
          328 107 callgsubr
          vlineto
          endchar
        </CharString>
        <CharString name="dvEight">
          2 callsubr
        </CharString>
        <CharString name="dvEyelash">
          -615 286 454 rmoveto
          -2 -18 -21 -2 -26 hhcurveto
          -84 -94 32 106 -3 hvcurveto
          -52 hlineto
          -143 123 -50 113 28 24 2 4 21 vhcurveto
          279 vmoveto
          60 -337 -60 vlineto
          endchar
        </CharString>
        <CharString name="dvEyelash_HA">
          80 624 65 -79 callsubr
          -775 -60 545 79 callgsubr
          -25 6 -22 12 -20 hvcurveto
          -82 2 -87 34 -3 102 rrcurveto
          -52 hlineto
          -143 123 -50 113 16 14 1 1 14 vhcurveto
          0 vlineto
          69 callgsubr
        </CharString>
        <CharString name="dvEyelash_YA">
          225 472 174 -90 callsubr
          -920 -60 434 284 callsubr
          -81 3 -87 33 -3 102 rrcurveto
          -52 hlineto
          -130 102 -53 103 -9 vhcurveto
          -174 9 95 -108 168 21 callsubr
        </CharString>
        <CharString name="dvFive">
          36 callsubr
        </CharString>
        <CharString name="dvFour">
          120 callgsubr
        </CharString>
        <CharString name="dvG">
          -193 472 -18 callgsubr
          -512 52 callgsubr
          endchar
        </CharString>
        <CharString name="dvGA">
          22 callgsubr
          171 callgsubr
          endchar
        </CharString>
        <CharString name="dvGH">
          -204 587 740 rmoveto
          -627 133 callgsubr
          -124 115 -58 133 144 118 74 171 vhcurveto
          137 callgsubr
        </CharString>
        <CharString name="dvGHA">
          79 734 740 rmoveto
          -774 -60 136 -38 hlineto
          31 callgsubr
        </CharString>
        <CharString name="dvGH_MA">
          536 986 451 -25 callsubr
          -1231 176 callgsubr
          71 62 28 55 34 vhcurveto
          -50 31 57 -30 65 hhcurveto
          -70 callgsubr
          -428 -223 rmoveto
          -88 -65 32 89 88 74 37 89 hvcurveto
          53 59 -53 98 callgsubr
          562 256 callgsubr
          30 callsubr
          hvcurveto
          -4 vlineto
          -67 -10 -51 -42 -81 hhcurveto
          endchar
        </CharString>
        <CharString name="dvGH_NA">
          532 296 170 rmoveto
          -88 -65 32 89 88 74 37 89 hvcurveto
          53 59 -53 98 callgsubr
          820 214 callgsubr
          -49 callsubr
          hvcurveto
          -3 0 -4 -3 vvcurveto
          -72 -7 -51 -46 -85 hhcurveto
          751 -170 -39 callgsubr
          -1227 176 callgsubr
          73 64 29 59 33 vhcurveto
          -56 35 64 -32 75 235 callsubr
          hlineto
          -347 428 127 callsubr
        </CharString>
        <CharString name="dvGH_R">
          -204 587 740 rmoveto
          -627 133 callgsubr
          -124 115 -58 133 19 19 1 3 18 vhcurveto
          -162 -146 281 callsubr
          210 206 rlineto
          47 40 28 61 84 vvcurveto
          137 callgsubr
        </CharString>
        <CharString name="dvGH_RA">
          79 734 740 rmoveto
          -774 133 callgsubr
          -122 108 -55 120 24 23 2 4 21 vhcurveto
          -151 -151 rlineto
          83 hlineto
          223 243 rlineto
          -213 72 callgsubr
          vlineto
          -418 -510 rmoveto
          -89 -84 31 90 88 74 37 89 hvcurveto
          33 59 -33 98 callgsubr
          367 -324 vlineto
          -115 -97 -71 -116 vhcurveto
          endchar
        </CharString>
        <CharString name="dvGH_YA">
          508 1023 144 callgsubr
          -1203 -60 136 -38 vlineto
          -96 11 -62 75 -33 vhcurveto
          -6 vlineto
          -57 -22 -47 -50 -79 vvcurveto
          -121 98 -63 125 88 90 27 107 35 vhcurveto
          -83 44 79 -47 111 -23 callsubr
          -657 170 rmoveto
          -81 -77 34 89 92 74 31 89 hvcurveto
          53 59 -53 98 callgsubr
          515 285 callgsubr
          -23 0 -23 2 -21 rrcurveto
          -144 -46 -69 -130 vhcurveto
          454 4 -78 callsubr
        </CharString>
        <CharString name="dvG_BA">
          443 699 94 18 callgsubr
          -1138 213 callsubr
          vlineto
          -98 callsubr
          592 121 callsubr
          -100 143 hvcurveto
          10 60 rmoveto
          -49 callgsubr
          endchar
        </CharString>
        <CharString name="dvG_BHA">
          509 722 11 callgsubr
          302 -390 173 callgsubr
          -617 213 callsubr
          hlineto
          -98 callsubr
          192 vlineto
          -22 -36 -10 -49 -59 vvcurveto
          -16 callgsubr
          173 -390 vlineto
          endchar
        </CharString>
        <CharString name="dvG_BH_YA">
          928 1175 -93 callsubr
          -456 154 7 callgsubr
          -17 -15 -2 -3 -14 vhcurveto
          -614 213 callsubr
          hlineto
          -98 callsubr
          189 vlineto
          129 callgsubr
          32 callgsubr
          -91 -78 callgsubr
          113 vlineto
          -171 11 94 186 callsubr
          endchar
        </CharString>
        <CharString name="dvG_DA">
          371 898 8 -87 callsubr
          -1056 213 callsubr
          hlineto
          -98 callsubr
          492 -111 -44 vlineto
          150 callgsubr
          -137 98 -90 144 180 callgsubr
        </CharString>
        <CharString name="dvG_DHA">
          471 743 568 159 callgsubr
          -621 213 callsubr
          hlineto
          -98 callsubr
          202 vlineto
          59 callsubr
          -64 -23 -40 -47 -70 vvcurveto
          -117 109 -60 114 95 83 35 63 41 vhcurveto
          -61 callgsubr
        </CharString>
        <CharString name="dvG_DH_VA">
          847 1362 144 callgsubr
          -645 -60 440 -200 vlineto
          -26 callsubr
          -603 213 callsubr
          hlineto
          -98 callsubr
          184 vlineto
          -17 -26 -9 -32 -36 vvcurveto
          -76 48 -53 58 -24 vhcurveto
          111 callsubr
          101 72 34 70 37 vhcurveto
          128 callsubr
          vlineto
          -181 163 -101 callsubr
          endchar
        </CharString>
        <CharString name="dvG_DH_YA">
          894 1141 174 -90 callsubr
          -688 -60 202 -4 callsubr
          -2 -36 2 -34 5 -31 rrcurveto
          -130 -66 -49 -113 -81 -87 32 84 85 78 27 85 vhcurveto
          -20 callsubr
          -23 -20 -3 -7 -19 hvcurveto
          -597 213 callsubr
          hlineto
          -98 callsubr
          178 vlineto
          -17 -26 -9 -32 -36 vvcurveto
          -76 48 -53 58 -24 vhcurveto
          111 callsubr
          109 76 40 82 34 vhcurveto
          -75 185 callsubr
          vlineto
          endchar
        </CharString>
        <CharString name="dvG_GA">
          440 1095 -18 callgsubr
          -1135 213 callsubr
          vlineto
          -98 callsubr
          304 -255 vlineto
          -98 callsubr
          289 callsubr
        </CharString>
        <CharString name="dvG_GHA">
          475 1130 740 rmoveto
          -1170 213 callsubr
          hlineto
          -98 callsubr
          191 -38 vlineto
          31 callgsubr
        </CharString>
        <CharString name="dvG_JA">
          621 1071 269 callsubr
          -1316 213 callsubr
          vlineto
          -98 callsubr
          770 -162 -267 -120 vlineto
          -96 callgsubr
          vlineto
          endchar
        </CharString>
        <CharString name="dvG_LA">
          678 867 231 -97 callgsubr
          -1363 213 callsubr
          vlineto
          -98 callsubr
          685 -170 vlineto
          -76 -7 -55 -44 -20 -74 rrcurveto
          -105 callsubr
          endchar
        </CharString>
        <CharString name="dvG_MA">
          493 943 451 -25 callsubr
          -1188 213 callsubr
          vlineto
          -98 callsubr
          380 7 callsubr
          endchar
        </CharString>
        <CharString name="dvG_NA">
          478 928 hmoveto
          -100 callsubr
          -1173 213 callsubr
          hlineto
          -98 callsubr
          627 -193 -320 46 callgsubr
          -71 callgsubr
          endchar
        </CharString>
        <CharString name="dvG_NNA">
          637 701 237 rmoveto
          -74 callsubr
          591 443 rmoveto
          60 -1332 213 callsubr
          vlineto
          -98 callsubr
          205 86 callgsubr
          endchar
        </CharString>
        <CharString name="dvG_N_YA">
          970 615 428 -103 callsubr
          604 -16 callsubr
          266 221 callgsubr
          -1665 213 callsubr
          vlineto
          -98 callsubr
          838 -16 119 callsubr
          -296 -100 callgsubr
          201 53 callgsubr
          vlineto
          endchar
        </CharString>
        <CharString name="dvG_R">
          -193 169 hmoveto
          83 hlineto
          294 330 rlineto
          76 vlineto
          274 vmoveto
          60 -586 52 callgsubr
          endchar
        </CharString>
        <CharString name="dvG_RA">
          22 callgsubr
          -300 vlineto
          -353 -380 rlineto
          83 hlineto
          270 303 rlineto
          -303 154 callsubr
        </CharString>
        <CharString name="dvG_R_YA">
          510 757 -93 callsubr
          -7 -60 rmoveto
          -51 callgsubr
          -1205 213 callsubr
          vlineto
          -98 callsubr
          378 -4 callsubr
          -2 -40 2 -37 6 -33 -315 -340 rcurveline
          83 hlineto
          249 279 rlineto
          -104 38 85 -61 126 hhcurveto
          endchar
        </CharString>
        <CharString name="dvG_SA">
          540 782 665 -37 callsubr
          413 15 rmoveto
          60 -1235 213 callsubr
          vlineto
          -98 callsubr
          417 169 callsubr
          -13 -13 1 -14 hhcurveto
          -212 -80 callsubr
          endchar
        </CharString>
        <CharString name="dvG_VA">
          422 691 163 16 callgsubr
          -1117 213 callsubr
          hlineto
          -98 callsubr
          571 -200 vlineto
          47 callgsubr
          -138 97 -98 137 50 callsubr
        </CharString>
        <CharString name="dvG_YA">
          465 712 174 -90 callsubr
          -1160 213 callsubr
          vlineto
          -98 callsubr
          333 73 callsubr
        </CharString>
        <CharString name="dvGx">
          -193 472 -18 callgsubr
          -512 52 callgsubr
          -137 -654 rmoveto
          211 callgsubr
        </CharString>
        <CharString name="dvGxA">
          22 callgsubr
          171 callgsubr
          -422 -654 rmoveto
          211 callgsubr
        </CharString>
        <CharString name="dvGx_R">
          -193 169 hmoveto
          83 hlineto
          294 330 rlineto
          76 vlineto
          274 vmoveto
          60 -586 52 callgsubr
          -234 -620 rmoveto
          211 callgsubr
        </CharString>
        <CharString name="dvGx_RA">
          72 68 90 -106 callgsubr
          659 590 rmoveto
          60 -767 213 callsubr
          vlineto
          -98 callsubr
          221 -300 vlineto
          -353 -380 rlineto
          83 hlineto
          270 303 rlineto
          -303 154 callsubr
        </CharString>
        <CharString name="dvH">
          -7 537 65 -79 callsubr
          -688 -60 173 callsubr
          92 -86 133 125 83 74 83 9 vhcurveto
          -52 -381 -45 callsubr
          endchar
        </CharString>
        <CharString name="dvHA">
          -7 537 65 -79 callsubr
          -688 -60 173 callsubr
          92 -86 133 125 83 74 83 9 vhcurveto
          endchar
        </CharString>
        <CharString name="dvHA_mU">
          -7 344 -327 rmoveto
          123 65 62 101 94 -61 48 -139 12 hvcurveto
          -116 10 -56 45 87 vvcurveto
          99 65 43 92 125 30 -77 -64 vhcurveto
          65 hlineto
          90 -55 111 -165 -27 -25 -3 -6 -23 vhcurveto
          -37 16 -30 27 42 146 callsubr
          -25 hvcurveto
          -51 -33 -30 -56 -76 vvcurveto
          -125 84 -63 147 -12 vhcurveto
          85 -7 56 -15 -75 vvcurveto
          -69 -46 -33 -78 -90 -72 39 106 vhcurveto
          -65 hlineto
          -109 66 -95 162 vhcurveto
          endchar
        </CharString>
        <CharString name="dvHA_mUU">
          -7 313 -327 rmoveto
          59 vlineto
          -75 -13 -50 34 75 vvcurveto
          65 49 39 71 122 56 -93 -153 -2 vhcurveto
          63 hlineto
          186 3 -84 118 -158 hhcurveto
          0 vlineto
          -92 1 -57 57 86 vvcurveto
          89 55 52 105 112 41 -60 -82 vhcurveto
          64 hlineto
          115 -70 87 -147 -28 -26 -3 -6 -24 vhcurveto
          -37 15 -29 28 41 146 callsubr
          -23 hvcurveto
          -52 -34 -30 -56 -75 vvcurveto
          -81 39 -58 64 -31 vhcurveto
          -44 -26 -31 -43 -66 vvcurveto
          -115 81 -53 110 13 vhcurveto
          endchar
        </CharString>
        <CharString name="dvHA_mvR">
          56 -40 680 239 callsubr
          -46 50 -23 hvcurveto
          -64 -45 -36 -76 -94 vvcurveto
          -186 135 -107 218 6 vhcurveto
          59 vlineto
          -179 -1 -106 79 147 vvcurveto
          141 86 63 113 76 60 -27 -65 21 vhcurveto
          -117 -1 -76 -39 -96 vvcurveto
          -101 81 -38 119 vhcurveto
          52 56 -43 hlineto
          -79 -69 13 70 68 57 13 76 hvcurveto
          68 hlineto
          151 -120 56 -109 -34 -32 -4 -9 -28 vhcurveto
          -46 13 -40 29 47 vvcurveto
          62 57 28 75 vhcurveto
          176 180 228 60 -751 hlineto
          endchar
        </CharString>
        <CharString name="dvH_LA">
          101 -40 -2 callgsubr
          479 -120 -152 153 callsubr
          -55 33 -45 50 -23 hvcurveto
          -73 -45 -41 -79 -97 vvcurveto
          -184 140 -104 176 -2 vhcurveto
          57 vlineto
          -145 6 -104 80 141 vvcurveto
          150 98 62 125 84 53 -26 -41 26 vhcurveto
          -33 -9 -25 -23 -11 -36 rrcurveto
          47 -13 -39 25 -49 hhcurveto
          -78 -59 -52 -97 -96 66 -74 111 hvcurveto
          51 vlineto
          -79 -41 49 68 58 27 39 53 64 14 -54 -71 -2 hvcurveto
          50 hlineto
          71 -2 12 54 63 hhcurveto
          58 18 -42 -58 -68 -29 -46 -85 hvcurveto
          -51 vlineto
          109 62 53 111 79 -39 64 -69 10 hvcurveto
          73 -30 -76 51 -117 hhcurveto
          -37 -34 -5 -9 -31 hvcurveto
          -46 13 -39 28 50 vvcurveto
          62 57 28 75 vhcurveto
          216 180 252 60 -796 hlineto
          endchar
        </CharString>
        <CharString name="dvH_MA">
          600 175 410 rmoveto
          62 57 28 75 vhcurveto
          176 180 305 -229 -55 hlineto
          -133 -74 -38 -83 -19 hvcurveto
          -162 256 callsubr
          875 41 -25 callsubr
          -1295 -60 458 237 callsubr
          vlineto
          86 callsubr
          157 hlineto
          -93 7 76 -64 95 hhcurveto
          -70 callgsubr
          endchar
        </CharString>
        <CharString name="dvH_NA">
          630 175 410 rmoveto
          62 57 28 75 vhcurveto
          176 180 597 248 callgsubr
          -136 -72 -60 -97 -13 hvcurveto
          -194 256 callsubr
          905 -410 rmoveto
          -100 callsubr
          -1325 -60 458 -120 -112 hlineto
          86 callsubr
          194 hlineto
          -100 13 83 -60 103 hhcurveto
          -6 callsubr
          -71 callgsubr
          endchar
        </CharString>
        <CharString name="dvH_NNA">
          80 -40 -2 callgsubr
          488 -120 -142 hlineto
          -118 -79 -48 -98 -59 38 -48 56 -22 hvcurveto
          -69 -45 -43 -77 -96 vvcurveto
          -176 127 -101 176 -2 vhcurveto
          59 vlineto
          -145 6 -90 79 132 vvcurveto
          89 41 58 57 32 vhcurveto
          -140 vlineto
          -93 33 -62 91 91 33 57 99 vhcurveto
          142 vlineto
          48 -29 27 -52 1 -87 1 -7 rcurveline
          -228 61 222 vlineto
          184 -112 84 -155 -37 -35 -5 -10 -32 vhcurveto
          -50 11 -47 29 54 vvcurveto
          62 57 26 75 vhcurveto
          206 180 222 60 -775 hlineto
          421 -741 rmoveto
          -64 -2 53 64 hvcurveto
          150 vlineto
          5 21 22 2 22 hhcurveto
          24 23 -2 -4 20 hvcurveto
          -151 vlineto
          -64 -2 -53 -64 vhcurveto
          endchar
        </CharString>
        <CharString name="dvH_R">
          -6 callgsubr
          516 -1056 -45 callsubr
          endchar
        </CharString>
        <CharString name="dvH_RA">
          -6 callgsubr
          endchar
        </CharString>
        <CharString name="dvH_VA">
          56 -40 -2 callgsubr
          468 -120 -122 153 callsubr
          -58 35 -47 54 -22 hvcurveto
          -68 -46 -39 -76 -94 vvcurveto
          -176 127 -103 176 -2 vhcurveto
          59 vlineto
          -145 6 -90 81 132 vvcurveto
          141 98 66 113 90 55 -26 -72 23 vhcurveto
          25 -26 -36 16 -44 hhcurveto
          -96 -68 -61 -101 -99 71 -61 93 53 41 20 33 26 hvcurveto
          -124 61 242 vlineto
          177 -91 91 -155 -36 -33 -5 -9 -29 vhcurveto
          -49 12 -45 29 50 vvcurveto
          62 57 28 75 vhcurveto
          186 180 218 60 -751 hlineto
          479 -795 rmoveto
          -69 -44 43 66 68 44 43 69 67 46 -43 -68 -66 -46 -43 -67 hvcurveto
          endchar
        </CharString>
        <CharString name="dvH_YA">
          245 534 -63 rmoveto
          -100 -54 54 96 hvcurveto
          75 -2 85 28 82 vvcurveto
          80 -81 55 -133 -31 -30 -4 -7 -27 vhcurveto
          -45 13 -40 30 48 vvcurveto
          62 57 28 75 vhcurveto
          176 180 234 -527 hlineto
          -117 -53 -99 -108 vhcurveto
          -596 743 239 callsubr
          -45 48 -24 hvcurveto
          -68 -42 -42 -75 -96 vvcurveto
          -189 148 -88 167 vhcurveto
          60 vlineto
          -143 -107 69 145 142 99 56 108 94 52 -27 -46 -56 -63 -3 -77 hvcurveto
          -20 hlineto
          -137 -14 67 -124 158 hhcurveto
          79 60 40 59 30 hvcurveto
          -172 65 876 140 60 -962 vlineto
          endchar
        </CharString>
        <CharString name="dvI">
          -17 638 -18 callgsubr
          -678 -60 466 -119 -100 vlineto
          -19 callgsubr
          hlineto
          endchar
        </CharString>
        <CharString name="dvII">
          -17 428 846 rmoveto
          -26 0 -46 -34 vvcurveto
          -468 -60 466 -119 -100 hlineto
          -19 callgsubr
          147 60 -149 106 88 callgsubr
        </CharString>
        <CharString name="dvII_Anusvara">
          -17 588 813 -106 callgsubr
          -160 33 rmoveto
          -26 0 -46 -34 vvcurveto
          -468 -60 466 -119 -100 hlineto
          -19 callgsubr
          147 60 -149 106 88 callgsubr
        </CharString>
        <CharString name="dvJ">
          -56 720 518 rmoveto
          -333 -120 hlineto
          -96 callgsubr
          268 vlineto
          1 220 rmoveto
          60 -761 -60 vlineto
          endchar
        </CharString>
        <CharString name="dvJA">
          204 654 460 rmoveto
          -460 65 680 140 60 -899 -60 694 -162 -267 -120 vlineto
          -96 callgsubr
          vlineto
          endchar
        </CharString>
        <CharString name="dvJH">
          -55 705 -18 callgsubr
          -745 249 callgsubr
          -100 vlineto
          -50 callsubr
          239 53 -408 hlineto
          53 callsubr
          hlineto
          endchar
        </CharString>
        <CharString name="dvJHA">
          204 859 -18 callgsubr
          -899 249 callgsubr
          -100 vlineto
          -50 callsubr
          188 -290 65 680 hlineto
          -422 -337 rmoveto
          53 callsubr
          171 -337 hlineto
          endchar
        </CharString>
        <CharString name="dvJH_MA">
          719 1169 182 callsubr
          -872 -337 rmoveto
          53 callsubr
          424 -229 -55 hlineto
          -126 -73 -34 -74 -23 hvcurveto
          744 337 rmoveto
          60 -1414 249 callgsubr
          -100 vlineto
          -50 callsubr
          155 hlineto
          -2 0 -2 -3 -18 callsubr
        </CharString>
        <CharString name="dvJH_NA">
          713 297 343 rmoveto
          53 callsubr
          680 248 callgsubr
          -130 -72 -55 -89 -17 hvcurveto
          539 -343 rmoveto
          -100 callsubr
          -1408 249 callgsubr
          -100 hlineto
          -50 callsubr
          154 hlineto
          -112 4 88 -68 109 hhcurveto
          -6 callsubr
          -71 callgsubr
          endchar
        </CharString>
        <CharString name="dvJH_R">
          -34 705 -18 callgsubr
          -745 249 callgsubr
          -100 vlineto
          -50 callsubr
          252 hlineto
          -294 -386 rlineto
          83 hlineto
          215 311 rlineto
          128 -425 vlineto
          53 callsubr
          hlineto
          endchar
        </CharString>
        <CharString name="dvJH_RA">
          224 879 -18 callgsubr
          -919 249 callgsubr
          -89 vlineto
          -113 -105 -20 -121 -117 95 -26 120 92 39 -16 -73 -68 -36 -40 -86 -92 -68 58 83 -5 hvcurveto
          291 callsubr
          144 hlineto
          -45 28 69 -38 76 hhcurveto
          127 52 79 82 46 -21 38 -25 14 hvcurveto
          194 hlineto
          -238 -386 rlineto
          75 hlineto
          167 292 rlineto
          -196 1 callsubr
          -426 -337 rmoveto
          -74 -63 10 76 77 75 5 75 hvcurveto
          157 169 191 -337 hlineto
          endchar
        </CharString>
        <CharString name="dvJH_YA">
          640 297 343 rmoveto
          53 callsubr
          326 -35 hlineto
          189 callgsubr
          -38 2 -36 6 -33 rrcurveto
          -444 -229 rmoveto
          17 callsubr
          161 hlineto
          -111 36 86 -65 131 -40 callgsubr
          -1335 249 callgsubr
          -100 vlineto
          -104 -103 -17 -124 -126 95 -16 119 71 61 -4 -86 -68 -43 -37 -86 -92 -61 55 83 -5 hvcurveto
          291 callsubr
          hlineto
          717 204 -78 callsubr
        </CharString>
        <CharString name="dvJ_BA">
          607 873 154 rmoveto
          140 callgsubr
          -33 -46 -19 -52 hhcurveto
          -10 -60 18 callgsubr
          -1302 -60 1097 65 callsubr
          -70 -62 -24 -42 -45 hvcurveto
          -299 -120 hlineto
          -96 callgsubr
          189 vlineto
          -19 -35 -11 -41 -45 vvcurveto
          222 callgsubr
          10 430 rmoveto
          -4 callgsubr
          endchar
        </CharString>
        <CharString name="dvJ_DA">
          520 1057 8 -87 callsubr
          -1215 -60 992 250 callsubr
          -86 -74 -15 -36 -53 hvcurveto
          -308 -120 hlineto
          -96 callgsubr
          187 vlineto
          -21 -34 -12 -42 -53 70 callgsubr
          endchar
        </CharString>
        <CharString name="dvJ_DDA">
          503 1148 -18 callgsubr
          -1188 -60 966 215 callgsubr
          -61 -60 -10 -33 -40 hvcurveto
          -278 -120 hlineto
          -96 callgsubr
          174 vlineto
          -5 -15 -2 -16 -19 56 callgsubr
        </CharString>
        <CharString name="dvJ_JA">
          756 1206 460 4 callsubr
        </CharString>
        <CharString name="dvJ_JHA">
          714 807 343 rmoveto
          53 callsubr
          171 -337 hlineto
          205 337 rmoveto
          60 -1409 -60 968 -109 -100 vlineto
          -71 -71 -8 -45 -38 hvcurveto
          -261 -120 hlineto
          -96 callgsubr
          171 vlineto
          -1 -9 -1 -10 -11 vvcurveto
          -126 95 -16 119 71 61 -4 -86 -68 -43 -37 -86 -92 -61 55 83 -5 vhcurveto
          291 callsubr
          144 hlineto
          17 callsubr
          188 -290 65 680 hlineto
          endchar
        </CharString>
        <CharString name="dvJ_J_NYA">
          667 1117 hmoveto
          -100 callsubr
          -1362 -60 1157 -148 -730 -119 hlineto
          -96 callgsubr
          287 vlineto
          108 85 -48 -109 -84 -40 -57 -96 -89 -71 258 callgsubr
          62 -41 86 hhcurveto
          122 71 83 115 76 -39 54 -58 30 hvcurveto
          217 hlineto
          endchar
        </CharString>
        <CharString name="dvJ_J_VA">
          1173 1442 163 16 callgsubr
          -1868 -60 1663 98 callsubr
          -63 -55 -21 -36 -41 hvcurveto
          -303 216 callsubr
          -335 -120 vlineto
          -96 callgsubr
          205 -84 vlineto
          -145 22 -125 167 167 22 125 145 vhcurveto
          84 192 vlineto
          -19 -35 -10 -41 -45 vvcurveto
          -62 callgsubr
        </CharString>
        <CharString name="dvJ_J_YA">
          1173 1420 184 15 callsubr
          268 221 callgsubr
          -1868 -60 1382 -5 119 callsubr
          -216 216 callsubr
          -290 -120 vlineto
          -96 callgsubr
          160 -84 vlineto
          -145 22 -125 167 167 22 125 145 vhcurveto
          84 56 callsubr
          endchar
        </CharString>
        <CharString name="dvJ_KA">
          935 845 151 callsubr
          -1620 -60 1049 -196 hlineto
          51 -32 -57 35 -85 hhcurveto
          -60 -52 -19 -33 -38 hvcurveto
          -298 -120 hlineto
          -96 callgsubr
          186 vlineto
          -18 -34 -10 -41 -46 vvcurveto
          49 callsubr
          endchar
        </CharString>
        <CharString name="dvJ_MA">
          671 1121 481 rmoveto
          -198 199 198 hlineto
          205 hmoveto
          60 -1366 -60 899 -192 -472 -90 vlineto
          136 callsubr
          169 vlineto
          -31 -26 -17 -38 -51 vvcurveto
          -90 callgsubr
          vhcurveto
          64 198 -425 1 callsubr
          -327 -319 rmoveto
          -98 -21 -59 -88 -65 -47 45 64 91 61 21 85 vhcurveto
          75 hlineto
          endchar
        </CharString>
        <CharString name="dvJ_NA">
          666 1116 hmoveto
          -100 callsubr
          -1361 -60 1156 -177 -729 -105 hlineto
          116 callgsubr
          -19 callsubr
          vhcurveto
          105 -65 -127 vlineto
          -145 22 -125 167 167 22 125 145 vhcurveto
          69 169 vlineto
          -32 -32 -16 -45 -54 103 callgsubr
          endchar
        </CharString>
        <CharString name="dvJ_NY">
          -39 716 532 rmoveto
          -432 241 callsubr
          56 79 vhcurveto
          -65 -308 65 187 hlineto
          216 callgsubr
          299 hlineto
          206 vmoveto
          60 -726 -60 vlineto
          endchar
        </CharString>
        <CharString name="dvJ_NYA">
          168 618 hmoveto
          -100 callsubr
          -863 -60 658 -148 -379 -57 1 hlineto
          108 85 -47 -109 -84 -42 -58 -96 -89 -69 258 callgsubr
          60 -41 86 hhcurveto
          122 73 84 115 78 -38 52 -56 29 hvcurveto
          214 hlineto
          endchar
        </CharString>
        <CharString name="dvJ_NY_YA">
          657 904 -93 callsubr
          -771 -8 rmoveto
          216 callgsubr
          45 hlineto
          99 65 -29 -53 11 hvcurveto
          -172 204 callgsubr
          -1352 -60 866 224 callgsubr
          -158 -7 vhcurveto
          55 -39 -81 26 -97 hhcurveto
          -178 241 callsubr
          54 81 vhcurveto
          -65 -308 65 hlineto
          endchar
        </CharString>
        <CharString name="dvJ_R">
          -56 47 callsubr
          endchar
        </CharString>
        <CharString name="dvJ_RA">
          204 654 460 35 callgsubr
        </CharString>
        <CharString name="dvJ_TA">
          595 882 56 rmoveto
          -150 -58 73 127 138 95 54 125 hvcurveto
          151 -448 -100 callsubr
          -1290 -60 1085 -172 -658 -110 hlineto
          116 callgsubr
          -19 callsubr
          vhcurveto
          110 -65 -132 vlineto
          -145 22 -125 167 167 22 125 145 vhcurveto
          74 254 vlineto
          -63 -37 -35 -62 -95 vvcurveto
          -145 76 -113 190 vhcurveto
          8 hlineto
          endchar
        </CharString>
        <CharString name="dvJ_TTA">
          578 974 261 callgsubr
          -1273 -60 949 -114 vlineto
          -74 -65 -16 -32 -51 hvcurveto
          -332 -120 hlineto
          -96 callgsubr
          203 vlineto
          -30 -40 -17 -52 -63 -60 callsubr
        </CharString>
        <CharString name="dvJ_VA">
          590 859 163 16 callgsubr
          -1285 -60 1080 98 callsubr
          -63 -55 -21 -36 -41 hvcurveto
          -303 -120 hlineto
          -96 callgsubr
          192 vlineto
          -19 -35 -10 -41 -45 vvcurveto
          -62 callgsubr
        </CharString>
        <CharString name="dvJ_YA">
          635 882 184 15 callsubr
          268 221 callgsubr
          -1330 -60 844 -5 119 callsubr
          -216 -120 hlineto
          -96 callgsubr
          56 callsubr
          endchar
        </CharString>
        <CharString name="dvJx">
          -56 720 518 rmoveto
          -333 -120 hlineto
          -96 callgsubr
          268 vlineto
          1 220 rmoveto
          60 -761 -60 vlineto
          306 -754 rmoveto
          211 callgsubr
        </CharString>
        <CharString name="dvJxA">
          204 264 -65 -106 callgsubr
          390 525 rmoveto
          -460 65 680 140 60 -899 -60 694 -162 -267 -120 vlineto
          -96 callgsubr
          vlineto
          endchar
        </CharString>
        <CharString name="dvJx_JxA">
          756 263 -65 -106 callgsubr
          553 hmoveto
          -107 callgsubr
          390 525 4 callsubr
        </CharString>
        <CharString name="dvJx_R">
          -96 47 callsubr
          184 -705 rmoveto
          211 callgsubr
        </CharString>
        <CharString name="dvJx_RA">
          204 116 -32 -106 callgsubr
          538 492 35 callgsubr
        </CharString>
        <CharString name="dvJx_YA">
          635 1150 144 callgsubr
          -1330 -60 844 -5 119 callsubr
          -216 -120 hlineto
          -96 callgsubr
          56 callsubr
          -815 -68 -106 callgsubr
          612 252 15 callsubr
          endchar
        </CharString>
        <CharString name="dvK">
          174 323 169 -106 callsubr
          620 571 rmoveto
          -983 -73 callsubr
          vhcurveto
          64 hlineto
          137 -85 95 -37 callgsubr
          391 vlineto
          endchar
        </CharString>
        <CharString name="dvKA">
          403 323 151 callsubr
          -1098 -60 527 -196 hlineto
          51 -32 -57 35 -85 hhcurveto
          -135 -90 -94 -137 -137 92 -93 133 55 callsubr
        </CharString>
        <CharString name="dvKH">
          41 810 -18 callgsubr
          -853 -60 316 -98 vlineto
          -81 callsubr
          127 86 76 128 128 -86 108 callsubr
          112 -331 -43 callgsubr
          endchar
        </CharString>
        <CharString name="dvKHA">
          290 596 493 11 callsubr
          -10 -348 78 callsubr
          -266 -86 -63 callgsubr
          endchar
        </CharString>
        <CharString name="dvKH_KHA">
          957 321 59 rmoveto
          -77 callgsubr
          596 -98 vlineto
          -160 -19 -14 -119 -1 vhcurveto
          89 -21 -71 57 -106 hhcurveto
          -127 -86 -76 -128 -87 39 -62 64 -32 hvcurveto
          -70 -15 -62 -39 -90 hhcurveto
          129 290 rmoveto
          88 59 56 88 94 55 -54 -90 -90 -55 -54 -94 -88 -59 56 88 vhcurveto
          807 -144 rmoveto
          90 callgsubr
          88 56 -56 -88 -88 -56 -56 -88 hvcurveto
          -276 -146 -63 callgsubr
          420 -59 rmoveto
          -100 callsubr
          -1648 -60 316 -98 hlineto
          -46 callsubr
          112 91 51 98 26 vhcurveto
          -2 14 15 -1 15 hhcurveto
          63 53 20 37 37 hvcurveto
          -128 11 90 -75 133 hhcurveto
          112 90 51 98 27 hvcurveto
          -2 12 12 -1 13 278 callgsubr
          endchar
        </CharString>
        <CharString name="dvKH_MA">
          838 1288 451 -25 callsubr
          -1533 -60 313 -98 vlineto
          -81 callsubr
          68 56 22 40 36 hvcurveto
          -58 29 61 -36 71 hhcurveto
          -70 callgsubr
          -430 100 92 callsubr
          -77 -57 -13 -27 -38 hvcurveto
          90 -23 -74 52 -105 hhcurveto
          -52 callsubr
          endchar
        </CharString>
        <CharString name="dvKH_NA">
          836 939 428 -103 callsubr
          -490 -79 -43 callgsubr
          -129 -290 rmoveto
          -77 callgsubr
          949 214 callgsubr
          -79 -58 -20 -36 -36 hvcurveto
          78 -28 -71 44 -97 hhcurveto
          -52 callsubr
          966 -59 rmoveto
          -100 callsubr
          -1531 -60 313 -98 hlineto
          -81 callsubr
          71 58 24 44 36 hvcurveto
          -65 32 69 -38 81 153 callgsubr
        </CharString>
        <CharString name="dvKH_R">
          -2 callsubr
          112 -331 -43 callgsubr
          endchar
        </CharString>
        <CharString name="dvKH_RA">
          290 596 493 11 callsubr
          -274 -404 13 callgsubr
          418 -89 rmoveto
          -100 callsubr
          -985 -60 313 -98 hlineto
          -166 -20 -9 -131 vhcurveto
          -37 -154 hlineto
          37 callgsubr
          endchar
        </CharString>
        <CharString name="dvKH_SHA">
          792 595 493 rmoveto
          100 50 -51 -93 -88 -54 -56 -95 -88 -59 53 91 88 55 56 91 hvcurveto
          852 187 282 callsubr
          -505 -86 rmoveto
          67 12 45 29 71 168 callsubr
          -15 -12 -1 1 -11 hvcurveto
          100 -19 -81 55 -104 hhcurveto
          -127 -85 -76 -128 -81 41 -64 63 -33 hvcurveto
          -72 -14 -63 -40 -91 hhcurveto
          -77 callgsubr
          434 vlineto
          -19 -24 -12 -29 -6 -33 rrcurveto
          383 -374 126 callgsubr
          -26 -23 -3 -7 -21 hvcurveto
          -899 -60 313 -98 hlineto
          -46 callsubr
          113 90 51 100 26 vhcurveto
          -3 16 16 -2 17 hhcurveto
          64 61 27 40 22 hvcurveto
          -15 241 callgsubr
          endchar
        </CharString>
        <CharString name="dvKH_TA">
          723 449 349 -43 callgsubr
          -129 -290 rmoveto
          -77 callgsubr
          836 214 callsubr
          -96 -80 -24 -53 -50 hvcurveto
          83 -26 -72 48 -101 hhcurveto
          -52 callsubr
          690 -3 rmoveto
          -76 callsubr
          151 -439 -100 callsubr
          -1418 -60 313 -98 hlineto
          -81 callsubr
          59 49 16 30 36 259 callsubr
        </CharString>
        <CharString name="dvKH_VA">
          720 449 349 -43 callgsubr
          540 -186 -101 callsubr
          -669 -104 rmoveto
          -77 callgsubr
          833 19 callgsubr
          -90 -73 -42 -69 -39 hvcurveto
          57 -35 -63 32 -82 hhcurveto
          -52 callsubr
          1055 681 rmoveto
          -1415 -60 313 -98 hlineto
          -81 callsubr
          78 60 28 52 36 hvcurveto
          -75 38 75 -47 95 42 callsubr
        </CharString>
        <CharString name="dvKH_YA">
          774 597 145 rmoveto
          86 65 35 62 33 hvcurveto
          -81 44 79 -47 110 -40 callgsubr
          -1469 -60 313 -98 vlineto
          -81 callsubr
          -277 205 callgsubr
          606 224 callgsubr
          -158 -7 vhcurveto
          65 -32 -67 37 -88 hhcurveto
          -52 callsubr
          129 290 -43 callgsubr
          572 -175 -78 callsubr
        </CharString>
        <CharString name="dvKHx">
          38 810 -18 callgsubr
          -850 -60 313 -98 vlineto
          -81 callsubr
          127 82 76 128 128 -82 108 callsubr
          -15 -844 -106 callgsubr
          127 204 callsubr
          endchar
        </CharString>
        <CharString name="dvKHxA">
          290 586 145 78 callsubr
          -274 -309 -106 callgsubr
          284 369 rmoveto
          90 callgsubr
          88 56 -56 -88 -88 -56 -56 -88 hvcurveto
          -276 -146 -63 callgsubr
          endchar
        </CharString>
        <CharString name="dvKHx_MA">
          838 1288 451 -25 callsubr
          -1536 -60 316 -98 vlineto
          -81 callsubr
          67 56 21 40 38 hvcurveto
          -57 29 60 -36 71 hhcurveto
          -70 callgsubr
          -705 -557 -106 callgsubr
          275 657 92 callsubr
          -75 -56 -12 -26 -38 hvcurveto
          89 -25 -76 51 -104 hhcurveto
          -52 callsubr
          endchar
        </CharString>
        <CharString name="dvKHx_R">
          -2 callsubr
          -227 -747 -106 callgsubr
          339 416 -43 callgsubr
          endchar
        </CharString>
        <CharString name="dvKHx_RA">
          290 740 hmoveto
          -100 callsubr
          -985 -60 313 -98 hlineto
          -166 -20 -9 -131 vhcurveto
          -37 -154 hlineto
          37 callgsubr
          -651 -286 -106 callgsubr
          507 279 rmoveto
          90 callgsubr
          88 56 -56 -88 -88 -56 -56 -88 hvcurveto
          -274 -116 13 callgsubr
          endchar
        </CharString>
        <CharString name="dvKHx_SA">
          834 320 59 rmoveto
          -77 callgsubr
          675 286 callgsubr
          82 -26 -72 47 -100 hhcurveto
          -52 callsubr
          -223 vmoveto
          -107 callgsubr
          129 204 callsubr
          627 316 -37 callsubr
          413 15 rmoveto
          60 -1529 -60 313 -98 vlineto
          -81 callsubr
          61 51 18 33 36 hvcurveto
          -115 6 60 -82 120 131 callgsubr
        </CharString>
        <CharString name="dvKHx_SHA">
          812 320 203 callsubr
          276 657 rmoveto
          -13 callgsubr
          88 59 56 88 hvcurveto
          216 83 rmoveto
          69 8 47 45 83 168 callsubr
          -17 -18 0 1 -18 hvcurveto
          97 -19 -79 57 -110 hhcurveto
          124 callsubr
          451 vlineto
          -23 -28 -14 -36 -3 -40 rrcurveto
          389 -356 rmoveto
          -32 callgsubr
          145 vlineto
          -1 22 22 -47 callsubr
          -26 -24 -3 -7 -21 hvcurveto
          -921 -60 316 -98 hlineto
          -81 callsubr
          60 51 17 32 37 hvcurveto
          -126 -24 callgsubr
          330 460 100 callgsubr
        </CharString>
        <CharString name="dvKHx_TA">
          709 308 203 callsubr
          126 204 callsubr
          -129 -290 rmoveto
          -77 callgsubr
          837 214 callsubr
          -94 -80 -23 -52 -50 hvcurveto
          82 -28 -74 47 -100 hhcurveto
          -52 callsubr
          691 -3 rmoveto
          -76 callsubr
          151 -439 -100 callsubr
          -1422 -60 316 -98 hlineto
          -81 callsubr
          58 50 16 30 37 259 callsubr
        </CharString>
        <CharString name="dvKHx_VA">
          721 320 203 callsubr
          129 204 callsubr
          541 -186 -101 callsubr
          -670 -104 rmoveto
          -77 callgsubr
          834 19 callgsubr
          -89 -73 -42 -67 -39 hvcurveto
          56 -36 -65 31 -81 hhcurveto
          -52 callsubr
          1056 681 rmoveto
          -1419 -60 316 -98 hlineto
          -81 callsubr
          77 62 28 50 37 hvcurveto
          -74 37 76 -46 94 42 callsubr
        </CharString>
        <CharString name="dvKHx_YA">
          774 597 145 rmoveto
          85 66 34 60 35 hvcurveto
          -79 44 78 -46 109 -40 callgsubr
          -1472 -60 316 -98 vlineto
          -81 callsubr
          -277 205 callgsubr
          606 224 callsubr
          -155 -8 vhcurveto
          65 -33 -69 37 -88 hhcurveto
          -52 callsubr
          2 -223 -106 callgsubr
          127 204 callsubr
          572 -175 -78 callsubr
        </CharString>
        <CharString name="dvK_CA">
          800 1455 740 rmoveto
          -1495 -60 527 -196 hlineto
          -42 callsubr
          351 vlineto
          134 4 127 -1 91 hhcurveto
          156 hlineto
          -57 -33 -35 -61 -78 187 callsubr
          -199 72 callgsubr
          vlineto
          -1132 175 callsubr
          752 -5 rmoveto
          -100 -72 54 97 101 69 68 108 hvcurveto
          26 57 -305 hlineto
          -108 -95 6 -74 -46 hvcurveto
          207 698 -335 vlineto
          -99 -74 -82 -101 vhcurveto
          endchar
        </CharString>
        <CharString name="dvK_DA">
          781 1318 8 -87 callsubr
          -1476 105 callsubr
          109 49 -65 -107 vhcurveto
          0 vlineto
          -2 0 -3 -3 70 callgsubr
          -930 161 -70 callsubr
          661 -111 -44 vlineto
          -120 -97 -30 -75 -50 hvcurveto
          67 -31 -63 40 -89 hhcurveto
          endchar
        </CharString>
        <CharString name="dvK_JA">
          986 323 169 -106 callsubr
          1113 291 rmoveto
          -460 -100 callsubr
          -1681 -60 527 -196 vlineto
          14 callsubr
          53 73 106 109 37 -58 -112 vhcurveto
          -128 4 32 -107 152 hhcurveto
          167 22 125 145 hvcurveto
          84 vlineto
          -189 -294 rmoveto
          -105 -16 73 102 -3 hvcurveto
          140 -63 90 -137 -83 -55 -37 -53 -31 vhcurveto
          199 884 77 callgsubr
          vhcurveto
          endchar
        </CharString>
        <CharString name="dvK_KA">
          1182 1112 151 callsubr
          -1887 -73 callsubr
          49 callsubr
          -1524 -511 -70 callsubr
          724 -196 vlineto
          51 -32 -57 35 -85 hhcurveto
          -86 -69 -39 -63 -37 hvcurveto
          64 -37 -66 39 -88 hhcurveto
          endchar
        </CharString>
        <CharString name="dvK_KHA">
          1082 1388 493 11 callsubr
          144 -493 rmoveto
          -100 callsubr
          -1777 -73 callsubr
          vhcurveto
          -111 35 callsubr
          -1209 -43 -70 callsubr
          513 -98 vlineto
          -157 -18 -17 -114 -1 vhcurveto
          99 -24 -77 65 -113 hhcurveto
          393 -512 -63 callgsubr
          endchar
        </CharString>
        <CharString name="dvK_LA">
          1071 323 169 -106 callsubr
          915 216 rmoveto
          81 -22 -65 45 -86 hhcurveto
          -70 -49 -24 -41 -32 hvcurveto
          77 -31 -67 48 -97 hhcurveto
          -82 -55 -36 -53 -30 hvcurveto
          198 837 61 callgsubr
          -1766 -71 callsubr
          108 54 -64 -107 1 vhcurveto
          -3 -22 -2 -23 -24 -17 callgsubr
        </CharString>
        <CharString name="dvK_MA">
          910 1360 451 -25 callsubr
          -1605 -71 callsubr
          82 54 -38 -65 22 vhcurveto
          -37 -27 -18 -42 -56 106 callsubr
          -775 -224 -70 callsubr
          546 256 callgsubr
          -47 -40 -5 -10 -32 hvcurveto
          83 -31 -72 52 -102 hhcurveto
          endchar
        </CharString>
        <CharString name="dvK_NA">
          966 722 571 rmoveto
          -83 -56 -37 -54 -31 hvcurveto
          200 864 214 callgsubr
          -79 -57 -20 -36 -37 hvcurveto
          84 -26 -68 56 -107 hhcurveto
          694 -571 rmoveto
          -100 callsubr
          -1661 -60 527 -196 hlineto
          14 callsubr
          54 73 106 107 56 -63 -106 2 vhcurveto
          -3 -14 -1 -14 -16 103 callgsubr
          -746 -259 -106 callsubr
          endchar
        </CharString>
        <CharString name="dvK_NNA">
          994 323 169 -106 callsubr
          229 511 rmoveto
          311 -166 hlineto
          36 -33 -47 21 -64 hhcurveto
          -82 -55 -36 -53 -30 hvcurveto
          506 -245 rmoveto
          -74 callsubr
          591 443 rmoveto
          60 -1689 -71 callsubr
          99 46 -52 -88 11 vhcurveto
          -119 11 53 -75 129 hhcurveto
          146 49 96 146 hvcurveto
          261 191 171 callgsubr
          endchar
        </CharString>
        <CharString name="dvK_PA">
          791 323 169 -106 callsubr
          758 100 29 callsubr
          -74 17 vhcurveto
          -109 18 69 -76 119 135 callgsubr
          -689 381 rmoveto
          304 -165 hlineto
          35 -33 -45 21 -60 212 callsubr
          endchar
        </CharString>
        <CharString name="dvK_PHA">
          1126 323 169 -106 callsubr
          229 511 rmoveto
          295 -156 hlineto
          29 -32 -43 18 -54 212 callsubr
          513 -176 -104 callsubr
          -1821 -71 callsubr
          78 44 -33 -57 22 vhcurveto
          -104 19 64 -71 115 115 callsubr
        </CharString>
        <CharString name="dvK_P_RA">
          791 323 169 -106 callsubr
          229 511 rmoveto
          304 -165 hlineto
          35 -33 -45 21 -60 212 callsubr
          529 -213 29 callsubr
          -75 17 vhcurveto
          -108 18 69 -73 119 -1 callsubr
          endchar
        </CharString>
        <CharString name="dvK_R">
          174 323 169 -106 callsubr
          620 571 24 callsubr
          endchar
        </CharString>
        <CharString name="dvK_RA">
          403 323 169 rmoveto
          -107 -63 61 109 108 60 63 108 105 61 -63 -108 -103 -56 -67 -108 hvcurveto
          735 571 6 callgsubr
          endchar
        </CharString>
        <CharString name="dvK_SA">
          966 1621 -18 callgsubr
          -1661 -60 527 -196 vlineto
          -59 callgsubr
          473 -369 65 680 vlineto
          -1158 175 callsubr
          885 496 -37 callsubr
          -489 -94 -36 callsubr
          592 231 callsubr
          225 callsubr
          endchar
        </CharString>
        <CharString name="dvK_SHA">
          904 323 169 -106 callsubr
          587 429 rmoveto
          60 10 50 32 72 238 callsubr
          -10 hhcurveto
          99 -20 -64 64 -112 hhcurveto
          -82 -55 -33 -50 -30 hvcurveto
          202 329 vlineto
          -19 -24 -11 -28 -3 -31 rrcurveto
          381 -377 126 callgsubr
          -25 -24 -4 -6 -21 hvcurveto
          -1011 -60 527 -196 hlineto
          10 callsubr
          63 106 109 39 -65 -107 vhcurveto
          -132 241 callgsubr
          330 460 100 callgsubr
        </CharString>
        <CharString name="dvK_SS">
          -86 291 750 -32 callsubr
          321 58 -243 -3 callsubr
        </CharString>
        <CharString name="dvK_SSA">
          150 291 750 -32 callsubr
          272 -381 0 callgsubr
          -301 -194 -3 callsubr
        </CharString>
        <CharString name="dvK_SS_MA">
          638 1088 182 callsubr
          -262 -77 callsubr
          -525 357 -32 callsubr
          230 hlineto
          -19 -25 -9 -33 -40 vvcurveto
          -90 callgsubr
          vhcurveto
          64 198 -393 -100 callsubr
          -716 -60 249 256 callgsubr
          -43 -36 -4 -8 -31 hvcurveto
          -245 -3 callsubr
        </CharString>
        <CharString name="dvK_SS_M_YA">
          1066 826 329 -102 callsubr
          -525 357 -32 callsubr
          230 hlineto
          -19 -25 -9 -33 -40 -15 callgsubr
          72 callgsubr
          60 -1164 -60 269 256 callgsubr
          -43 -36 -4 -8 -31 hvcurveto
          -245 hlineto
          49 40 21 50 54 vvcurveto
          85 -64 82 -121 vhcurveto
          934 -105 234 callgsubr
          78 -506 -107 callsubr
          -1010 517 rmoveto
          66 54 -36 -79 -62 -36 -44 -51 -31 hvcurveto
          -85 -77 36 96 87 60 33 69 hvcurveto
          endchar
        </CharString>
        <CharString name="dvK_SS_VA">
          531 275 callsubr
          -84 48 -62 85 -27 hvcurveto
          -87 -38 -81 -47 -112 161 callgsubr
          105 98 32 94 43 vhcurveto
          235 hlineto
          -1 -11 -1 -11 -12 vvcurveto
          -55 callgsubr
          60 -619 -60 414 19 callgsubr
          -104 -81 -56 -88 -33 hvcurveto
          -151 hlineto
          39 33 30 44 59 vvcurveto
          103 -72 80 -116 vhcurveto
          498 -587 -101 callsubr
          -498 528 rmoveto
          63 61 -43 -86 -60 -46 -43 -52 -28 hvcurveto
          -104 2 -58 47 82 vvcurveto
          91 66 38 70 vhcurveto
          endchar
        </CharString>
        <CharString name="dvK_SS_YA">
          575 275 callsubr
          -88 53 -57 92 -23 hvcurveto
          -91 -39 -89 -46 -117 161 callgsubr
          113 113 29 100 48 vhcurveto
          199 hlineto
          -170 10 91 -99 167 hhcurveto
          108 74 52 72 32 hvcurveto
          -238 -100 callsubr
          -672 -60 186 -35 vlineto
          -144 -1 -60 -200 vhcurveto
          -111 hlineto
          34 31 24 42 53 vvcurveto
          103 -72 80 -116 vhcurveto
          516 -576 rmoveto
          -138 -70 83 220 callgsubr
          95 154 vvcurveto
          36 216 -271 vlineto
          -137 -78 -98 -129 vhcurveto
          -516 517 rmoveto
          63 61 -43 -86 -53 -37 -40 -44 -28 hvcurveto
          -118 -61 37 84 91 66 38 70 hvcurveto
          endchar
        </CharString>
        <CharString name="dvK_S_DDA">
          1247 1902 -18 callgsubr
          -1942 -71 callsubr
          101 58 -56 -93 8 vhcurveto
          -149 -104 callgsubr
          156 435 vlineto
          -87 20 85 -24 109 hhcurveto
          -83 callgsubr
          -1422 -511 -70 callsubr
          591 vlineto
          -1 -204 -13 -51 -200 -1 rrcurveto
          225 callsubr
          861 -10 rmoveto
          -100 -99 -28 -109 -7 hvcurveto
          -235 170 callgsubr
          473 -119 hlineto
          endchar
        </CharString>
        <CharString name="dvK_S_P_LA">
          1976 1421 -2 callgsubr
          -221 vlineto
          -12 0 -12 1 -11 vhcurveto
          -283 hlineto
          34 callsubr
          433 -411 rmoveto
          115 callgsubr
          808 26 callgsubr
          -107 -58 -55 -88 -22 hvcurveto
          -61 -23 -35 -38 -84 hhcurveto
          534 -38 -97 callgsubr
          -2671 -60 527 -196 vlineto
          -59 callgsubr
          487 vlineto
          -96 23 64 -64 124 117 callgsubr
          -1788 -62 -70 callsubr
          592 vlineto
          -1 -205 -13 -50 -201 -1 rrcurveto
          225 callsubr
          endchar
        </CharString>
        <CharString name="dvK_S_P_RA">
          1334 1399 198 callgsubr
          -261 hlineto
          34 callsubr
          416 -411 rmoveto
          -92 callsubr
          -2029 -60 527 -196 hlineto
          -59 callgsubr
          466 vlineto
          -94 24 67 -63 110 -1 callsubr
          -1461 -123 -70 callsubr
          592 vlineto
          -1 -205 -13 -50 -201 -1 rrcurveto
          225 callsubr
          endchar
        </CharString>
        <CharString name="dvK_S_TA">
          1337 1624 56 rmoveto
          -76 callsubr
          151 -439 -100 callsubr
          -2032 -60 527 -196 hlineto
          -59 callgsubr
          430 vlineto
          -15 -33 -8 -39 -46 45 callgsubr
          -1301 171 -70 callsubr
          592 vlineto
          -1 -205 -13 -50 -201 -1 rrcurveto
          225 callsubr
          1068 109 rmoveto
          214 callsubr
          -95 -79 -23 -52 -51 hvcurveto
          -271 170 callgsubr
          endchar
        </CharString>
        <CharString name="dvK_S_TTA">
          1313 719 571 -36 callsubr
          573 vlineto
          -1 -204 -13 -51 -199 -1 rrcurveto
          90 -23 -64 57 -106 hhcurveto
          -396 -402 -106 callsubr
          1321 511 rmoveto
          -114 vlineto
          -127 -1 -103 -47 -46 -94 rrcurveto
          -247 hlineto
          51 38 14 76 3 142 rrcurveto
          520 -174 84 callgsubr
          -2008 -71 callsubr
          109 40 -68 -104 9 callsubr
          426 vlineto
          -5 -20 -2 -21 -23 -60 callsubr
        </CharString>
        <CharString name="dvK_TA">
          485 370 56 187 callgsubr
          hvcurveto
          151 -439 65 249 hlineto
          108 66 66 108 109 71 -67 -113 -121 -89 -64 -120 10 vhcurveto
          -60 vlineto
          -1 7 8 0 7 hhcurveto
          149 -4 103 97 143 vvcurveto
          147 -98 93 -137 -88 -61 -35 -51 -35 vhcurveto
          283 542 60 -1180 -60 573 -181 -508 -58 178 vlineto
          -67 -31 -40 -73 -86 109 callsubr
        </CharString>
        <CharString name="dvK_THA">
          909 353 169 -106 callsubr
          646 511 rmoveto
          6 16 25 4 22 hhcurveto
          76 48 -40 -72 -123 -98 -13 -159 2 hvcurveto
          75 -23 -60 52 -97 hhcurveto
          -82 -55 -36 -53 -30 hvcurveto
          198 vlineto
          -361 vmoveto
          119 51 73 106 94 37 -49 -82 5 vhcurveto
          -162 3 96 -119 174 141 callgsubr
          140 60 -205 -391 vlineto
          -110 -93 -80 -111 246 callgsubr
          vhcurveto
          159 -4 149 25 164 vvcurveto
          108 -80 68 -108 -24 -24 -4 -6 -22 vhcurveto
          0 -1003 48 callsubr
          endchar
        </CharString>
        <CharString name="dvK_TTA">
          845 323 169 -106 callsubr
          918 337 84 callgsubr
          -1540 -60 527 -196 vlineto
          14 callsubr
          54 73 106 108 56 -64 -106 1 vhcurveto
          -1 -11 -1 -12 -13 vvcurveto
          -86 callsubr
          -454 65 rmoveto
          -83 -56 -37 -54 -31 hvcurveto
          200 624 -114 vlineto
          -115 -1 -94 -38 -51 -76 rrcurveto
          73 -30 -65 47 -99 hhcurveto
          endchar
        </CharString>
        <CharString name="dvK_T_RA">
          781 323 169 -106 callsubr
          557 168 rmoveto
          102 10 45 67 106 94 callgsubr
          160 60 -1476 -60 527 -196 vlineto
          -31 callsubr
          111 31 78 107 98 36 -74 -97 vhcurveto
          -128 229 rmoveto
          -72 -46 -30 -46 -26 hvcurveto
          190 659 -215 vlineto
          60 -27 -62 42 -89 hhcurveto
          -87 -58 -41 -67 -31 hvcurveto
          65 -24 -51 42 -86 hhcurveto
          endchar
        </CharString>
        <CharString name="dvK_T_VA">
          1204 323 169 -70 callsubr
          1102 19 callgsubr
          -74 -62 -28 -48 -41 hvcurveto
          -141 hlineto
          -94 -79 -23 -51 -51 hvcurveto
          89 -26 -70 57 -106 hhcurveto
          754 -408 16 callgsubr
          -1899 105 callsubr
          108 54 -63 -106 1 vhcurveto
          -9 -26 -4 -31 -34 vvcurveto
          -145 76 -108 190 vhcurveto
          -36 callgsubr
          103 hlineto
          -12 -30 -7 -33 -37 vvcurveto
          -62 callgsubr
        </CharString>
        <CharString name="dvK_T_YA">
          1308 323 169 -70 callsubr
          925 -35 vlineto
          -139 -1 -52 -180 -4 vhcurveto
          33 -40 -60 16 -72 hhcurveto
          -89 -70 -23 -48 -45 hvcurveto
          88 -27 -69 55 -105 hhcurveto
          836 -397 -107 callsubr
          -441 -118 rmoveto
          142 callgsubr
          73 60 125 93 47 -24 -46 14 hvcurveto
          -158 17 94 -97 159 -40 callgsubr
          -2003 -71 callsubr
          107 54 -63 -106 2 vhcurveto
          -8 -27 -4 -30 -34 193 callgsubr
        </CharString>
        <CharString name="dvK_VA">
          852 1121 10 callgsubr
          -1547 -73 callsubr
          -55 callgsubr
          vlineto
          endchar
        </CharString>
        <CharString name="dvK_V_YA">
          1329 323 169 -106 callsubr
          619 170 rmoveto
          -38 callgsubr
          633 -165 -107 callsubr
          -1023 145 rmoveto
          119 51 73 106 109 59 -65 -107 -144 101 -92 143 104 79 48 82 36 vhcurveto
          -76 45 77 -43 106 -40 callgsubr
          -2023 48 callsubr
          569 575 rmoveto
          -94 -76 -40 -68 -41 hvcurveto
          65 -36 -67 39 -88 hhcurveto
          -82 -55 -36 -53 -30 hvcurveto
          198 945 224 callgsubr
          -159 -7 vhcurveto
          78 -37 -78 46 -101 hhcurveto
          endchar
        </CharString>
        <CharString name="dvK_YA">
          904 552 319 rmoveto
          51 callsubr
          -1598 48 callsubr
          -229 169 -70 callsubr
          520 -35 vlineto
          -131 -1 -54 -152 -9 vhcurveto
          74 -32 -73 46 -95 hhcurveto
          431 -397 -78 callsubr
        </CharString>
        <CharString name="dvKx">
          174 943 740 rmoveto
          -983 -73 callsubr
          vhcurveto
          64 hlineto
          137 -85 95 -37 callgsubr
          391 vlineto
          -597 -754 -106 callgsubr
          -23 243 -106 callsubr
          endchar
        </CharString>
        <CharString name="dvKxA">
          403 1058 740 rmoveto
          -1098 -60 527 -196 hlineto
          51 -32 -57 35 -85 hhcurveto
          -135 -90 -94 -137 -137 92 -93 133 86 56 35 51 32 hvcurveto
          -195 -91 callsubr
          -704 -740 -106 callgsubr
          -31 229 -106 callsubr
          endchar
        </CharString>
        <CharString name="dvKx_BA">
          873 1139 154 rmoveto
          -49 callgsubr
          -420 47 -36 callsubr
          771 65 callsubr
          -95 -81 -45 -72 -43 hvcurveto
          64 -36 -67 40 -88 hhcurveto
          -366 -627 -106 callgsubr
          -30 225 -106 callsubr
          806 -75 18 callgsubr
          -1568 -71 callsubr
          109 59 -65 -107 222 callgsubr
          endchar
        </CharString>
        <CharString name="dvKx_KxA">
          1192 1847 740 rmoveto
          -1887 -73 callsubr
          49 callsubr
          -1495 -740 -106 callgsubr
          791 hmoveto
          -107 callgsubr
          -820 229 -106 callsubr
          789 hmoveto
          -107 -63 61 -9 callsubr
          60 63 108 105 61 -63 -108 -103 -56 -67 -108 hvcurveto
          -393 402 -36 callsubr
          724 -196 vlineto
          51 -32 -57 35 -85 hhcurveto
          -86 -69 -39 -63 -37 hvcurveto
          64 -37 -66 39 -88 hhcurveto
          endchar
        </CharString>
        <CharString name="dvKx_MA">
          885 1335 451 -25 callsubr
          -1580 -71 callsubr
          77 52 -33 -57 24 vhcurveto
          -50 -27 -25 -45 -66 106 callsubr
          -354 178 -36 callsubr
          521 256 callgsubr
          -37 -32 -3 -6 -27 hvcurveto
          79 -33 -71 50 -99 hhcurveto
          -360 -632 -106 callgsubr
          -36 230 -106 callsubr
          endchar
        </CharString>
        <CharString name="dvKx_PHA">
          95 callgsubr
          -26 227 -106 callsubr
          742 137 -104 callsubr
          -1821 -71 callsubr
          78 44 -33 -57 22 vhcurveto
          -104 19 64 -71 115 115 callsubr
        </CharString>
        <CharString name="dvKx_PHxA">
          95 callgsubr
          669 88 -106 callgsubr
          -695 139 -106 callsubr
          742 137 -104 callsubr
          -1821 -71 callsubr
          78 44 -33 -57 22 vhcurveto
          -104 19 64 -71 115 115 callsubr
        </CharString>
        <CharString name="dvKx_R">
          174 943 740 24 callsubr
          -824 -666 -106 callgsubr
          204 155 -106 callsubr
          endchar
        </CharString>
        <CharString name="dvKx_RA">
          403 1058 740 6 callgsubr
          -933 -678 -106 callgsubr
          198 167 -106 callsubr
          endchar
        </CharString>
        <CharString name="dvKx_TA">
          797 719 571 -36 callsubr
          695 214 callsubr
          -71 -62 -13 -28 -48 hvcurveto
          70 -35 -69 43 -92 hhcurveto
          365 -515 rmoveto
          -76 callsubr
          151 -439 -100 callsubr
          -1492 105 callsubr
          80 53 -35 -60 22 vhcurveto
          -34 -39 -20 -54 -72 45 callgsubr
          -725 -60 -106 callgsubr
          -36 231 -106 callsubr
          endchar
        </CharString>
        <CharString name="dvL">
          92 827 -18 callgsubr
          -867 -60 vlineto
          868 -409 rmoveto
          125 -45 115 -154 -92 -59 -52 -74 -20 vhcurveto
          -105 callgsubr
          33 94 111 hhcurveto
          101 32 -76 -104 hvcurveto
          endchar
        </CharString>
        <CharString name="dvLA">
          -58 callgsubr
          endchar
        </CharString>
        <CharString name="dvLL">
          327 982 -18 callgsubr
          -1022 -60 vlineto
          520 -282 rmoveto
          17 callgsubr
          -78 34 77 -45 86 hhcurveto
          135 98 93 134 272 callsubr
          hvcurveto
          197 63 rmoveto
          100 68 -66 -101 -100 -66 -66 -102 -98 -65 69 97 98 65 69 98 hvcurveto
          -393 -333 rmoveto
          -100 -68 67 99 101 68 66 100 100 63 -69 -98 -97 -63 -69 -100 hvcurveto
          endchar
        </CharString>
        <CharString name="dvLLA">
          327 677 67 rmoveto
          135 98 93 134 131 -94 91 -127 6 hvcurveto
          158 293 60 -1022 -60 664 -164 vlineto
          -64 -14 -54 -42 -26 -62 rrcurveto
          17 callgsubr
          -78 34 77 -45 86 hhcurveto
          -393 61 -8 callgsubr
          endchar
        </CharString>
        <CharString name="dvLL_R">
          327 982 -18 callgsubr
          -1022 -60 vlineto
          520 -282 rmoveto
          17 callgsubr
          27 -63 56 -41 65 -14 -152 -163 rcurveline
          81 hlineto
          133 158 rlineto
          1 hlineto
          151 callgsubr
          -151 168 rlineto
          97 27 64 81 109 vvcurveto
          272 callsubr
          vhcurveto
          -196 -270 -8 callgsubr
          endchar
        </CharString>
        <CharString name="dvLL_RA">
          327 791 -91 rmoveto
          81 hlineto
          -146 162 rlineto
          109 20 75 86 117 vvcurveto
          131 -94 91 -127 6 vhcurveto
          158 293 60 -1022 -60 664 -164 vlineto
          -64 -14 -54 -42 -26 -62 rrcurveto
          17 callgsubr
          24 -56 46 -38 56 -18 -158 -169 rcurveline
          219 callsubr
          vlineto
          -379 61 -8 callgsubr
          endchar
        </CharString>
        <CharString name="dvLL_YA">
          866 284 128 -8 callgsubr
          436 -287 -90 callsubr
          -1561 -60 1075 284 callsubr
          45 -42 -62 27 -71 hhcurveto
          -86 -78 -45 -79 -33 hvcurveto
          17 callgsubr
          -78 34 77 -45 86 hhcurveto
          104 82 55 86 32 hvcurveto
          -60 46 71 -34 94 21 callsubr
        </CharString>
        <CharString name="dvL_BA">
          746 1002 94 18 callgsubr
          -1441 -60 1236 65 callsubr
          -107 -88 -56 -88 -37 hvcurveto
          42 -27 -44 29 -72 hhcurveto
          -92 -57 -53 callsubr
          31 116 callsubr
          81 32 -50 -73 9 hvcurveto
          -139 5 108 -95 139 hhcurveto
          10 60 rmoveto
          -49 callgsubr
          endchar
        </CharString>
        <CharString name="dvL_BHA">
          822 926 169 132 callgsubr
          367 rmoveto
          -30 callgsubr
          -93 -55 vlineto
          -89 -63 -17 -37 -37 hvcurveto
          66 -22 -46 51 -96 hhcurveto
          -92 -57 -53 callsubr
          31 116 callsubr
          86 31 -56 -80 7 hvcurveto
          -2 -11 -1 -12 -12 vvcurveto
          -100 79 -70 99 119 53 75 141 vhcurveto
          149 callgsubr
          -930 -60 846 247 callsubr
          endchar
        </CharString>
        <CharString name="dvL_DA">
          665 1202 8 -87 callsubr
          -1360 -60 1137 250 callsubr
          -134 -105 -37 -95 -43 hvcurveto
          44 -26 -44 30 -74 hhcurveto
          -92 -57 -53 callsubr
          31 116 callsubr
          85 31 -54 -79 7 hvcurveto
          -130 6 97 -84 139 hhcurveto
          180 callgsubr
        </CharString>
        <CharString name="dvL_DDA">
          612 1267 -18 callgsubr
          -1307 -60 1085 215 callgsubr
          -86 -85 -20 -75 -27 hvcurveto
          27 -27 -38 18 -55 hhcurveto
          -92 -57 -53 callsubr
          29 94 115 hhcurveto
          70 28 -31 -50 14 hvcurveto
          -88 19 85 -24 110 hhcurveto
          -83 callgsubr
          endchar
        </CharString>
        <CharString name="dvL_DDHA">
          691 1078 517 142 callsubr
          -1385 -60 1117 -103 vlineto
          -131 1 -118 -48 -51 -110 rrcurveto
          52 -24 -45 39 -83 hhcurveto
          -92 -55 -53 callsubr
          29 116 callsubr
          85 38 -57 -80 2 hvcurveto
          -1 -8 0 -9 -9 -60 callgsubr
          106 73 156 -1 vhcurveto
          endchar
        </CharString>
        <CharString name="dvL_D_RA">
          665 1202 8 -87 callsubr
          -1360 -60 1137 250 callsubr
          -134 -105 -37 -95 -43 hvcurveto
          44 -26 -44 30 -74 hhcurveto
          -92 -57 -53 callsubr
          31 116 callsubr
          85 31 -54 -78 7 hvcurveto
          -130 6 95 -82 141 hhcurveto
          10 9 1 1 10 hvcurveto
          112 callgsubr
          endchar
        </CharString>
        <CharString name="dvL_GA">
          798 1453 -18 callgsubr
          -1493 -60 1003 -255 vlineto
          -72 0 -56 -63 -42 -11 42 48 -17 vhcurveto
          59 -22 -32 67 -109 hhcurveto
          -87 -52 -54 -103 callgsubr
          25 96 107 hhcurveto
          68 23 -44 -48 18 hvcurveto
          -59 22 14 -65 89 hhcurveto
          103 22 76 115 hvcurveto
          252 289 callsubr
        </CharString>
        <CharString name="dvL_HA">
          601 1148 65 -79 callsubr
          -1299 -60 1069 237 callsubr
          hlineto
          -92 -68 -30 -60 -26 hvcurveto
          24 -24 -34 17 -48 hhcurveto
          -92 -55 -53 callsubr
          26 116 callsubr
          59 29 -24 -45 12 hvcurveto
          1 -2 0 -2 1 -2 rrcurveto
          -1 vlineto
          0 vlineto
          10 -36 25 -29 34 -18 rrcurveto
          69 callgsubr
        </CharString>
        <CharString name="dvL_JA">
          872 1322 460 -9 callgsubr
        </CharString>
        <CharString name="dvL_JxA">
          877 953 -63 -106 callgsubr
          374 523 -9 callgsubr
        </CharString>
        <CharString name="dvL_KA">
          1065 985 151 callsubr
          -1760 -60 1189 -196 hlineto
          51 -32 -57 35 -85 hhcurveto
          -98 -74 -50 -79 -34 hvcurveto
          42 -27 -43 28 -72 hhcurveto
          -92 -57 -53 callsubr
          31 116 callsubr
          81 32 -49 -73 9 hvcurveto
          -132 5 91 -88 129 hhcurveto
          55 callsubr
        </CharString>
</ttFont>
